solid CATIA STL
  facet normal  0.000000e+000  -0.000000e+000  1.000000e+000
    outer loop
      vertex -1.379032e+001 -4.480746e+000  1.400000e+001
      vertex -1.173075e+001 -8.522886e+000  1.400000e+001
      vertex  1.173075e+001 -8.522886e+000  1.400000e+001
    endloop
  endfacet
  facet normal  0.000000e+000  -0.000000e+000  1.000000e+000
    outer loop
      vertex -1.379032e+001 -4.480746e+000  1.400000e+001
      vertex  1.173075e+001 -8.522886e+000  1.400000e+001
      vertex  1.379032e+001 -4.480746e+000  1.400000e+001
    endloop
  endfacet
  facet normal  0.000000e+000  0.000000e+000  1.000000e+000
    outer loop
      vertex -1.379032e+001 -4.480746e+000  1.400000e+001
      vertex  1.379032e+001 -4.480746e+000  1.400000e+001
      vertex -2.755455e-016 -1.500000e+000  1.400000e+001
    endloop
  endfacet
  facet normal  0.000000e+000  0.000000e+000  1.000000e+000
    outer loop
      vertex -1.379032e+001 -4.480746e+000  1.400000e+001
      vertex -2.755455e-016 -1.500000e+000  1.400000e+001
      vertex -1.060660e+000 -1.060660e+000  1.400000e+001
    endloop
  endfacet
  facet normal  0.000000e+000  0.000000e+000  9.999999e-001
    outer loop
      vertex -1.379032e+001 -4.480746e+000  1.400000e+001
      vertex -1.060660e+000 -1.060660e+000  1.400000e+001
      vertex -1.500000e+000  0.000000e+000  1.400000e+001
    endloop
  endfacet
  facet normal  0.000000e+000  0.000000e+000  1.000000e+000
    outer loop
      vertex -1.379032e+001 -4.480746e+000  1.400000e+001
      vertex -1.500000e+000  0.000000e+000  1.400000e+001
      vertex -1.450000e+001  0.000000e+000  1.400000e+001
    endloop
  endfacet
  facet normal  0.000000e+000  0.000000e+000  1.000000e+000
    outer loop
      vertex  1.450000e+001 -2.930865e-014  1.400000e+001
      vertex  1.500000e+000 -3.673940e-016  1.400000e+001
      vertex  1.379032e+001 -4.480746e+000  1.400000e+001
    endloop
  endfacet
  facet normal  0.000000e+000  0.000000e+000  1.000000e+000
    outer loop
      vertex  1.379032e+001 -4.480746e+000  1.400000e+001
      vertex  1.500000e+000 -3.673940e-016  1.400000e+001
      vertex  1.060660e+000 -1.060660e+000  1.400000e+001
    endloop
  endfacet
  facet normal  0.000000e+000  0.000000e+000  1.000000e+000
    outer loop
      vertex  1.379032e+001 -4.480746e+000  1.400000e+001
      vertex  1.060660e+000 -1.060660e+000  1.400000e+001
      vertex -2.755455e-016 -1.500000e+000  1.400000e+001
    endloop
  endfacet
  facet normal  -0.000000e+000  0.000000e+000  1.000000e+000
    outer loop
      vertex  1.173075e+001 -8.522886e+000  1.400000e+001
      vertex -1.173075e+001 -8.522886e+000  1.400000e+001
      vertex  8.522886e+000 -1.173075e+001  1.400000e+001
    endloop
  endfacet
  facet normal  0.000000e+000  0.000000e+000  1.000000e+000
    outer loop
      vertex  8.522886e+000 -1.173075e+001  1.400000e+001
      vertex -1.173075e+001 -8.522886e+000  1.400000e+001
      vertex -8.522886e+000 -1.173075e+001  1.400000e+001
    endloop
  endfacet
  facet normal  -0.000000e+000  0.000000e+000  1.000000e+000
    outer loop
      vertex  8.522886e+000 -1.173075e+001  1.400000e+001
      vertex -8.522886e+000 -1.173075e+001  1.400000e+001
      vertex  4.480746e+000 -1.379032e+001  1.400000e+001
    endloop
  endfacet
  facet normal  0.000000e+000  0.000000e+000  1.000000e+000
    outer loop
      vertex  4.480746e+000 -1.379032e+001  1.400000e+001
      vertex -8.522886e+000 -1.173075e+001  1.400000e+001
      vertex -4.480746e+000 -1.379032e+001  1.400000e+001
    endloop
  endfacet
  facet normal  -0.000000e+000  0.000000e+000  1.000000e+000
    outer loop
      vertex  4.480746e+000 -1.379032e+001  1.400000e+001
      vertex -4.480746e+000 -1.379032e+001  1.400000e+001
      vertex -1.554219e-014 -1.450000e+001  1.400000e+001
    endloop
  endfacet
  facet normal  1.061361e-015  1.000000e+000 -1.990051e-016
    outer loop
      vertex -1.300000e+001  0.000000e+000  1.100000e+001
      vertex -1.300000e+001 -1.592041e-015  3.000000e+000
      vertex -1.450000e+001  0.000000e+000  3.000000e+000
    endloop
  endfacet
  facet normal  0.000000e+000  1.000000e+000  0.000000e+000
    outer loop
      vertex -1.300000e+001  0.000000e+000  1.100000e+001
      vertex -1.450000e+001  0.000000e+000  3.000000e+000
      vertex -1.450000e+001  0.000000e+000  1.400000e+001
    endloop
  endfacet
  facet normal -3.339946e-017  1.000000e+000 -1.669973e-017
    outer loop
      vertex -1.300000e+001  0.000000e+000  1.100000e+001
      vertex -1.450000e+001  0.000000e+000  1.400000e+001
      vertex -3.000000e+000  3.673940e-016  1.300000e+001
    endloop
  endfacet
  facet normal  0.000000e+000  1.000000e+000 -1.836970e-016
    outer loop
      vertex -1.300000e+001  0.000000e+000  1.100000e+001
      vertex -3.000000e+000  3.673940e-016  1.300000e+001
      vertex -3.000000e+000  0.000000e+000  1.100000e+001
    endloop
  endfacet
  facet normal  3.673941e-016  1.000000e+000  4.592425e-015
    outer loop
      vertex -3.000000e+000  3.673940e-016  1.300000e+001
      vertex -1.450000e+001  0.000000e+000  1.400000e+001
      vertex -1.500000e+000 -1.836970e-016  1.300000e+001
    endloop
  endfacet
  facet normal  0.000000e+000  1.000000e+000 -1.836970e-016
    outer loop
      vertex -1.500000e+000 -1.836970e-016  1.300000e+001
      vertex -1.450000e+001  0.000000e+000  1.400000e+001
      vertex -1.500000e+000  0.000000e+000  1.400000e+001
    endloop
  endfacet
  facet normal  3.826835e-001  9.238794e-001  -0.000000e+000
    outer loop
      vertex -2.755455e-016 -1.500000e+000  1.400000e+001
      vertex -1.060660e+000 -1.060660e+000  1.300000e+001
      vertex -1.060660e+000 -1.060660e+000  1.400000e+001
    endloop
  endfacet
  facet normal  9.238794e-001  3.826835e-001  0.000000e+000
    outer loop
      vertex -1.060660e+000 -1.060660e+000  1.400000e+001
      vertex -1.060660e+000 -1.060660e+000  1.300000e+001
      vertex -1.500000e+000 -1.836970e-016  1.300000e+001
    endloop
  endfacet
  facet normal  9.238794e-001  3.826835e-001 -7.029781e-017
    outer loop
      vertex -1.060660e+000 -1.060660e+000  1.400000e+001
      vertex -1.500000e+000 -1.836970e-016  1.300000e+001
      vertex -1.500000e+000  0.000000e+000  1.400000e+001
    endloop
  endfacet
  facet normal  3.826835e-001  9.238794e-001  1.405956e-016
    outer loop
      vertex -1.060660e+000 -1.060660e+000  1.300000e+001
      vertex -2.755455e-016 -1.500000e+000  1.400000e+001
      vertex  9.184851e-017 -1.500000e+000  1.300000e+001
    endloop
  endfacet
  facet normal -3.826835e-001  9.238794e-001 -1.405956e-016
    outer loop
      vertex  9.184851e-017 -1.500000e+000  1.300000e+001
      vertex -2.755455e-016 -1.500000e+000  1.400000e+001
      vertex  1.060660e+000 -1.060660e+000  1.400000e+001
    endloop
  endfacet
  facet normal -3.826835e-001  9.238794e-001  0.000000e+000
    outer loop
      vertex  9.184851e-017 -1.500000e+000  1.300000e+001
      vertex  1.060660e+000 -1.060660e+000  1.400000e+001
      vertex  1.060660e+000 -1.060660e+000  1.300000e+001
    endloop
  endfacet
  facet normal -9.238794e-001  3.826835e-001  0.000000e+000
    outer loop
      vertex  1.060660e+000 -1.060660e+000  1.300000e+001
      vertex  1.060660e+000 -1.060660e+000  1.400000e+001
      vertex  1.500000e+000 -3.673940e-016  1.400000e+001
    endloop
  endfacet
  facet normal -9.238794e-001  3.826835e-001  1.405956e-016
    outer loop
      vertex  1.060660e+000 -1.060660e+000  1.300000e+001
      vertex  1.500000e+000 -3.673940e-016  1.400000e+001
      vertex  1.500000e+000  0.000000e+000  1.300000e+001
    endloop
  endfacet
  facet normal  2.226251e-015  1.000000e+000  3.673955e-016
    outer loop
      vertex  1.500000e+000 -3.673940e-016  1.400000e+001
      vertex  1.450000e+001 -2.930865e-014  1.400000e+001
      vertex  1.500000e+000  0.000000e+000  1.300000e+001
    endloop
  endfacet
  facet normal  4.898587e-016  1.000000e+000  2.294049e-014
    outer loop
      vertex  1.500000e+000  0.000000e+000  1.300000e+001
      vertex  1.450000e+001 -2.930865e-014  1.400000e+001
      vertex  3.000000e+000 -7.347881e-016  1.300000e+001
    endloop
  endfacet
  facet normal  1.709483e-015  1.000000e+000  8.914809e-015
    outer loop
      vertex  1.450000e+001 -2.930865e-014  1.400000e+001
      vertex  1.300000e+001  0.000000e+000  1.100000e+001
      vertex  3.000000e+000 -7.347881e-016  1.300000e+001
    endloop
  endfacet
  facet normal  0.000000e+000  1.000000e+000  3.673940e-016
    outer loop
      vertex  3.000000e+000 -7.347881e-016  1.300000e+001
      vertex  1.300000e+001  0.000000e+000  1.100000e+001
      vertex  3.000000e+000  0.000000e+000  1.100000e+001
    endloop
  endfacet
  facet normal  -0.000000e+000  1.000000e+000  2.664423e-015
    outer loop
      vertex  1.450000e+001  0.000000e+000  3.000000e+000
      vertex  1.300000e+001  0.000000e+000  3.000000e+000
      vertex  1.450000e+001 -2.930865e-014  1.400000e+001
    endloop
  endfacet
  facet normal  1.953910e-014  1.000000e+000  0.000000e+000
    outer loop
      vertex  1.450000e+001 -2.930865e-014  1.400000e+001
      vertex  1.300000e+001  0.000000e+000  3.000000e+000
      vertex  1.300000e+001  0.000000e+000  1.100000e+001
    endloop
  endfacet
  facet normal  0.000000e+000  0.000000e+000 -1.000000e+000
    outer loop
      vertex -1.500000e+000 -1.836970e-016  1.300000e+001
      vertex -1.060660e+000 -1.060660e+000  1.300000e+001
      vertex -3.000000e+000  3.673940e-016  1.300000e+001
    endloop
  endfacet
  facet normal  0.000000e+000  0.000000e+000 -1.000000e+000
    outer loop
      vertex -2.427051e+000 -1.763356e+000  1.300000e+001
      vertex -3.000000e+000  3.673940e-016  1.300000e+001
      vertex -1.060660e+000 -1.060660e+000  1.300000e+001
    endloop
  endfacet
  facet normal  0.000000e+000  -0.000000e+000 -1.000000e+000
    outer loop
      vertex -2.427051e+000 -1.763356e+000  1.300000e+001
      vertex -1.060660e+000 -1.060660e+000  1.300000e+001
      vertex  9.184851e-017 -1.500000e+000  1.300000e+001
    endloop
  endfacet
  facet normal  0.000000e+000  -0.000000e+000 -1.000000e+000
    outer loop
      vertex -2.427051e+000 -1.763356e+000  1.300000e+001
      vertex  9.184851e-017 -1.500000e+000  1.300000e+001
      vertex  2.427051e+000 -1.763356e+000  1.300000e+001
    endloop
  endfacet
  facet normal  -0.000000e+000  0.000000e+000 -9.999999e-001
    outer loop
      vertex -2.427051e+000 -1.763356e+000  1.300000e+001
      vertex  2.427051e+000 -1.763356e+000  1.300000e+001
      vertex  9.270510e-001 -2.853169e+000  1.300000e+001
    endloop
  endfacet
  facet normal  0.000000e+000  0.000000e+000 -1.000000e+000
    outer loop
      vertex -2.427051e+000 -1.763356e+000  1.300000e+001
      vertex  9.270510e-001 -2.853169e+000  1.300000e+001
      vertex -9.270510e-001 -2.853169e+000  1.300000e+001
    endloop
  endfacet
  facet normal  -0.000000e+000  0.000000e+000 -1.000000e+000
    outer loop
      vertex  1.500000e+000  0.000000e+000  1.300000e+001
      vertex  3.000000e+000 -7.347881e-016  1.300000e+001
      vertex  1.060660e+000 -1.060660e+000  1.300000e+001
    endloop
  endfacet
  facet normal  0.000000e+000  0.000000e+000 -1.000000e+000
    outer loop
      vertex  1.060660e+000 -1.060660e+000  1.300000e+001
      vertex  3.000000e+000 -7.347881e-016  1.300000e+001
      vertex  2.427051e+000 -1.763356e+000  1.300000e+001
    endloop
  endfacet
  facet normal  0.000000e+000  0.000000e+000 -1.000000e+000
    outer loop
      vertex  1.060660e+000 -1.060660e+000  1.300000e+001
      vertex  2.427051e+000 -1.763356e+000  1.300000e+001
      vertex  9.184851e-017 -1.500000e+000  1.300000e+001
    endloop
  endfacet
  facet normal -5.877852e-001  8.090170e-001  0.000000e+000
    outer loop
      vertex  9.270510e-001 -2.853169e+000  1.100000e+001
      vertex  2.427051e+000 -1.763356e+000  1.300000e+001
      vertex  2.427051e+000 -1.763356e+000  1.100000e+001
    endloop
  endfacet
  facet normal -9.510565e-001  3.090169e-001  0.000000e+000
    outer loop
      vertex  2.427051e+000 -1.763356e+000  1.100000e+001
      vertex  2.427051e+000 -1.763356e+000  1.300000e+001
      vertex  3.000000e+000 -7.347881e-016  1.300000e+001
    endloop
  endfacet
  facet normal -9.510565e-001  3.090169e-001  1.135310e-016
    outer loop
      vertex  2.427051e+000 -1.763356e+000  1.100000e+001
      vertex  3.000000e+000 -7.347881e-016  1.300000e+001
      vertex  3.000000e+000  0.000000e+000  1.100000e+001
    endloop
  endfacet
  facet normal -5.877852e-001  8.090170e-001  0.000000e+000
    outer loop
      vertex  2.427051e+000 -1.763356e+000  1.300000e+001
      vertex  9.270510e-001 -2.853169e+000  1.100000e+001
      vertex  9.270510e-001 -2.853169e+000  1.300000e+001
    endloop
  endfacet
  facet normal  0.000000e+000  1.000000e+000  0.000000e+000
    outer loop
      vertex  9.270510e-001 -2.853169e+000  1.300000e+001
      vertex  9.270510e-001 -2.853169e+000  1.100000e+001
      vertex -9.270510e-001 -2.853169e+000  1.100000e+001
    endloop
  endfacet
  facet normal  0.000000e+000  1.000000e+000  0.000000e+000
    outer loop
      vertex  9.270510e-001 -2.853169e+000  1.300000e+001
      vertex -9.270510e-001 -2.853169e+000  1.100000e+001
      vertex -9.270510e-001 -2.853169e+000  1.300000e+001
    endloop
  endfacet
  facet normal  5.877852e-001  8.090170e-001  0.000000e+000
    outer loop
      vertex -9.270510e-001 -2.853169e+000  1.300000e+001
      vertex -9.270510e-001 -2.853169e+000  1.100000e+001
      vertex -2.427051e+000 -1.763356e+000  1.100000e+001
    endloop
  endfacet
  facet normal  5.877852e-001  8.090170e-001  -0.000000e+000
    outer loop
      vertex -9.270510e-001 -2.853169e+000  1.300000e+001
      vertex -2.427051e+000 -1.763356e+000  1.100000e+001
      vertex -2.427051e+000 -1.763356e+000  1.300000e+001
    endloop
  endfacet
  facet normal  9.510565e-001  3.090169e-001  0.000000e+000
    outer loop
      vertex -2.427051e+000 -1.763356e+000  1.300000e+001
      vertex -2.427051e+000 -1.763356e+000  1.100000e+001
      vertex -3.000000e+000  0.000000e+000  1.100000e+001
    endloop
  endfacet
  facet normal  9.510565e-001  3.090169e-001 -5.676549e-017
    outer loop
      vertex -2.427051e+000 -1.763356e+000  1.300000e+001
      vertex -3.000000e+000  0.000000e+000  1.100000e+001
      vertex -3.000000e+000  3.673940e-016  1.300000e+001
    endloop
  endfacet
  facet normal  7.070662e-001 -7.070662e-001  1.071986e-002
    outer loop
      vertex  1.173075e+001 -8.522886e+000  1.400000e+001
      vertex  8.522886e+000 -1.173075e+001  1.400000e+001
      vertex  9.591173e+000 -1.087471e+001  0.000000e+000
    endloop
  endfacet
  facet normal  5.379019e-001 -8.429421e-001 -1.049659e-002
    outer loop
      vertex  5.822345e+000 -1.327969e+001  0.000000e+000
      vertex  9.591173e+000 -1.087471e+001  0.000000e+000
      vertex  8.522886e+000 -1.173075e+001  1.400000e+001
    endloop
  endfacet
  facet normal  1.564220e-001 -9.876097e-001  1.262415e-002
    outer loop
      vertex  1.500000e+000 -1.442220e+001  1.500000e+000
      vertex  4.480746e+000 -1.379032e+001  1.400000e+001
      vertex -1.554219e-014 -1.450000e+001  1.400000e+001
    endloop
  endfacet
  facet normal -4.539630e-001 -8.909525e-001  1.100670e-002
    outer loop
      vertex -5.822345e+000 -1.327969e+001  0.000000e+000
      vertex -4.480746e+000 -1.379032e+001  1.400000e+001
      vertex -8.522886e+000 -1.173075e+001  1.400000e+001
    endloop
  endfacet
  facet normal -5.379019e-001 -8.429421e-001 -1.049659e-002
    outer loop
      vertex -5.822345e+000 -1.327969e+001  0.000000e+000
      vertex -8.522886e+000 -1.173075e+001  1.400000e+001
      vertex -9.591173e+000 -1.087471e+001  0.000000e+000
    endloop
  endfacet
  facet normal -7.070662e-001 -7.070662e-001  1.071986e-002
    outer loop
      vertex -9.591173e+000 -1.087471e+001  0.000000e+000
      vertex -8.522886e+000 -1.173075e+001  1.400000e+001
      vertex -1.173075e+001 -8.522886e+000  1.400000e+001
    endloop
  endfacet
  facet normal  -0.000000e+000 -9.999807e-001 -6.223482e-003
    outer loop
      vertex -1.500000e+000 -1.442220e+001  1.500000e+000
      vertex  1.500000e+000 -1.442220e+001  1.500000e+000
      vertex -1.554219e-014 -1.450000e+001  1.400000e+001
    endloop
  endfacet
  facet normal -1.564220e-001 -9.876097e-001  1.262415e-002
    outer loop
      vertex -1.500000e+000 -1.442220e+001  1.500000e+000
      vertex -1.554219e-014 -1.450000e+001  1.400000e+001
      vertex -4.480746e+000 -1.379032e+001  1.400000e+001
    endloop
  endfacet
  facet normal -2.519141e-001 -9.676853e-001 -1.115404e-002
    outer loop
      vertex -1.500000e+000 -1.442220e+001  1.500000e+000
      vertex -4.480746e+000 -1.379032e+001  1.400000e+001
      vertex -5.822345e+000 -1.327969e+001  0.000000e+000
    endloop
  endfacet
  facet normal -2.555498e-001 -9.667959e-001  0.000000e+000
    outer loop
      vertex -1.500000e+000 -1.442220e+001  1.500000e+000
      vertex -5.822345e+000 -1.327969e+001  0.000000e+000
      vertex -1.500000e+000 -1.442220e+001  0.000000e+000
    endloop
  endfacet
  facet normal -7.691736e-001 -6.390401e-001  0.000000e+000
    outer loop
      vertex -1.244819e+001 -7.435897e+000  0.000000e+000
      vertex -9.591173e+000 -1.087471e+001  0.000000e+000
      vertex -1.244819e+001 -7.435897e+000  3.000000e+000
    endloop
  endfacet
  facet normal -7.742512e-001 -6.327640e-001 -1.202964e-002
    outer loop
      vertex -1.244819e+001 -7.435897e+000  3.000000e+000
      vertex -9.591173e+000 -1.087471e+001  0.000000e+000
      vertex -1.173075e+001 -8.522886e+000  1.400000e+001
    endloop
  endfacet
  facet normal -9.023784e-001 -4.306363e-001  1.630078e-002
    outer loop
      vertex -1.244819e+001 -7.435897e+000  3.000000e+000
      vertex -1.173075e+001 -8.522886e+000  1.400000e+001
      vertex -1.361066e+001 -5.000000e+000  3.000000e+000
    endloop
  endfacet
  facet normal -8.909855e-001 -4.539798e-001  6.877698e-003
    outer loop
      vertex -1.361066e+001 -5.000000e+000  3.000000e+000
      vertex -1.173075e+001 -8.522886e+000  1.400000e+001
      vertex -1.379032e+001 -4.480746e+000  1.400000e+001
    endloop
  endfacet
  facet normal -9.653375e-001 -2.609824e-001 -3.447103e-003
    outer loop
      vertex -1.361066e+001 -5.000000e+000  3.000000e+000
      vertex -1.379032e+001 -4.480746e+000  1.400000e+001
      vertex -1.427593e+001 -2.539238e+000  3.000000e+000
    endloop
  endfacet
  facet normal  7.691335e-001 -6.390067e-001 -1.019882e-002
    outer loop
      vertex  9.591173e+000 -1.087471e+001  0.000000e+000
      vertex  1.244819e+001 -7.435897e+000  0.000000e+000
      vertex  1.173075e+001 -8.522886e+000  1.400000e+001
    endloop
  endfacet
  facet normal  8.345986e-001 -5.508587e-001  0.000000e+000
    outer loop
      vertex  1.173075e+001 -8.522886e+000  1.400000e+001
      vertex  1.244819e+001 -7.435897e+000  0.000000e+000
      vertex  1.244819e+001 -7.435897e+000  3.000000e+000
    endloop
  endfacet
  facet normal  8.909283e-001 -4.539506e-001  1.325013e-002
    outer loop
      vertex  1.173075e+001 -8.522886e+000  1.400000e+001
      vertex  1.244819e+001 -7.435897e+000  3.000000e+000
      vertex  1.379032e+001 -4.480746e+000  1.400000e+001
    endloop
  endfacet
  facet normal  9.024841e-001 -4.306868e-001  5.590350e-003
    outer loop
      vertex  1.379032e+001 -4.480746e+000  1.400000e+001
      vertex  1.244819e+001 -7.435897e+000  3.000000e+000
      vertex  1.361066e+001 -5.000000e+000  3.000000e+000
    endloop
  endfacet
  facet normal  9.653375e-001 -2.609824e-001 -3.447103e-003
    outer loop
      vertex  1.379032e+001 -4.480746e+000  1.400000e+001
      vertex  1.361066e+001 -5.000000e+000  3.000000e+000
      vertex  1.427593e+001 -2.539238e+000  3.000000e+000
    endloop
  endfacet
  facet normal  9.875621e-001 -1.564145e-001  1.599035e-002
    outer loop
      vertex  1.379032e+001 -4.480746e+000  1.400000e+001
      vertex  1.427593e+001 -2.539238e+000  3.000000e+000
      vertex  1.450000e+001 -2.930865e-014  1.400000e+001
    endloop
  endfacet
  facet normal  9.961293e-001 -8.790015e-002 -2.342032e-016
    outer loop
      vertex  1.450000e+001 -2.930865e-014  1.400000e+001
      vertex  1.427593e+001 -2.539238e+000  3.000000e+000
      vertex  1.450000e+001  0.000000e+000  3.000000e+000
    endloop
  endfacet
  facet normal  2.073805e-001 -9.782604e-001  0.000000e+000
    outer loop
      vertex  1.500000e+000 -1.442220e+001  1.500000e+000
      vertex  1.500000e+000 -1.442220e+001  0.000000e+000
      vertex  4.480746e+000 -1.379032e+001  1.400000e+001
    endloop
  endfacet
  facet normal  2.555350e-001 -9.667398e-001 -1.077257e-002
    outer loop
      vertex  4.480746e+000 -1.379032e+001  1.400000e+001
      vertex  1.500000e+000 -1.442220e+001  0.000000e+000
      vertex  5.822345e+000 -1.327969e+001  0.000000e+000
    endloop
  endfacet
  facet normal  4.539630e-001 -8.909525e-001  1.100670e-002
    outer loop
      vertex  4.480746e+000 -1.379032e+001  1.400000e+001
      vertex  5.822345e+000 -1.327969e+001  0.000000e+000
      vertex  8.522886e+000 -1.173075e+001  1.400000e+001
    endloop
  endfacet
  facet normal -9.961293e-001 -8.790015e-002  0.000000e+000
    outer loop
      vertex -1.450000e+001  0.000000e+000  3.000000e+000
      vertex -1.427593e+001 -2.539238e+000  3.000000e+000
      vertex -1.450000e+001  0.000000e+000  1.400000e+001
    endloop
  endfacet
  facet normal -9.875621e-001 -1.564145e-001  1.599035e-002
    outer loop
      vertex -1.450000e+001  0.000000e+000  1.400000e+001
      vertex -1.427593e+001 -2.539238e+000  3.000000e+000
      vertex -1.379032e+001 -4.480746e+000  1.400000e+001
    endloop
  endfacet
  facet normal  0.000000e+000  0.000000e+000 -1.000000e+000
    outer loop
      vertex  1.300000e+001  0.000000e+000  0.000000e+000
      vertex  1.300000e+001  5.000000e+000  0.000000e+000
      vertex  1.700000e+001  5.000000e+000  0.000000e+000
    endloop
  endfacet
  facet normal  0.000000e+000  -0.000000e+000 -1.000000e+000
    outer loop
      vertex  1.300000e+001  0.000000e+000  0.000000e+000
      vertex  1.700000e+001  5.000000e+000  0.000000e+000
      vertex  1.700000e+001  1.250000e+000  0.000000e+000
    endloop
  endfacet
  facet normal  0.000000e+000  0.000000e+000 -1.000000e+000
    outer loop
      vertex  1.300000e+001  0.000000e+000  0.000000e+000
      vertex  1.700000e+001  1.250000e+000  0.000000e+000
      vertex  1.611612e+001  8.838835e-001  0.000000e+000
    endloop
  endfacet
  facet normal  0.000000e+000  0.000000e+000 -1.000000e+000
    outer loop
      vertex  1.300000e+001  0.000000e+000  0.000000e+000
      vertex  1.611612e+001  8.838835e-001  0.000000e+000
      vertex  1.575000e+001 -1.530808e-016  0.000000e+000
    endloop
  endfacet
  facet normal  -0.000000e+000  -0.000000e+000 -1.000000e+000
    outer loop
      vertex  1.300000e+001  0.000000e+000  0.000000e+000
      vertex  1.575000e+001 -1.530808e-016  0.000000e+000
      vertex  1.611612e+001 -8.838835e-001  0.000000e+000
    endloop
  endfacet
  facet normal  -0.000000e+000  -0.000000e+000 -1.000000e+000
    outer loop
      vertex  1.300000e+001  0.000000e+000  0.000000e+000
      vertex  1.611612e+001 -8.838835e-001  0.000000e+000
      vertex  1.700000e+001 -1.250000e+000  0.000000e+000
    endloop
  endfacet
  facet normal  -0.000000e+000  -0.000000e+000 -1.000000e+000
    outer loop
      vertex  1.300000e+001  0.000000e+000  0.000000e+000
      vertex  1.700000e+001 -1.250000e+000  0.000000e+000
      vertex  1.700000e+001 -5.000000e+000  0.000000e+000
    endloop
  endfacet
  facet normal  0.000000e+000  0.000000e+000 -9.999999e-001
    outer loop
      vertex  1.300000e+001  0.000000e+000  0.000000e+000
      vertex  1.700000e+001 -5.000000e+000  0.000000e+000
      vertex  1.274755e+001 -2.549510e+000  0.000000e+000
    endloop
  endfacet
  facet normal  0.000000e+000  0.000000e+000 -1.000000e+000
    outer loop
      vertex  1.674067e+001 -5.000000e+000  0.000000e+000
      vertex  1.427293e+001 -5.651408e+000  0.000000e+000
      vertex  1.200000e+001 -5.000000e+000  0.000000e+000
    endloop
  endfacet
  facet normal  0.000000e+000  0.000000e+000 -1.000000e+000
    outer loop
      vertex  1.674067e+001 -5.000000e+000  0.000000e+000
      vertex  1.200000e+001 -5.000000e+000  0.000000e+000
      vertex  1.274755e+001 -2.549510e+000  0.000000e+000
    endloop
  endfacet
  facet normal  0.000000e+000  0.000000e+000 -1.000000e+000
    outer loop
      vertex  1.674067e+001 -5.000000e+000  0.000000e+000
      vertex  1.274755e+001 -2.549510e+000  0.000000e+000
      vertex  1.700000e+001 -5.000000e+000  0.000000e+000
    endloop
  endfacet
  facet normal  0.000000e+000  0.000000e+000 -1.000000e+000
    outer loop
      vertex  1.700000e+001  1.250000e+000  0.000000e+000
      vertex  1.700000e+001  5.000000e+000  0.000000e+000
      vertex  1.850000e+001  4.598076e+000  0.000000e+000
    endloop
  endfacet
  facet normal  0.000000e+000  -0.000000e+000 -1.000000e+000
    outer loop
      vertex  1.700000e+001  1.250000e+000  0.000000e+000
      vertex  1.850000e+001  4.598076e+000  0.000000e+000
      vertex  1.959808e+001  3.500000e+000  0.000000e+000
    endloop
  endfacet
  facet normal  0.000000e+000  -0.000000e+000 -1.000000e+000
    outer loop
      vertex  1.700000e+001  1.250000e+000  0.000000e+000
      vertex  1.959808e+001  3.500000e+000  0.000000e+000
      vertex  2.000000e+001  2.000000e+000  0.000000e+000
    endloop
  endfacet
  facet normal  0.000000e+000  0.000000e+000 -1.000000e+000
    outer loop
      vertex  1.700000e+001  1.250000e+000  0.000000e+000
      vertex  2.000000e+001  2.000000e+000  0.000000e+000
      vertex  1.788388e+001  8.838835e-001  0.000000e+000
    endloop
  endfacet
  facet normal  0.000000e+000  0.000000e+000 -1.000000e+000
    outer loop
      vertex  2.000000e+001 -2.000000e+000  0.000000e+000
      vertex  1.700000e+001 -1.250000e+000  0.000000e+000
      vertex  1.788388e+001 -8.838835e-001  0.000000e+000
    endloop
  endfacet
  facet normal  0.000000e+000  0.000000e+000 -1.000000e+000
    outer loop
      vertex  2.000000e+001 -2.000000e+000  0.000000e+000
      vertex  1.788388e+001 -8.838835e-001  0.000000e+000
      vertex  1.825000e+001  0.000000e+000  0.000000e+000
    endloop
  endfacet
  facet normal  0.000000e+000  0.000000e+000 -1.000000e+000
    outer loop
      vertex  2.000000e+001 -2.000000e+000  0.000000e+000
      vertex  1.825000e+001  0.000000e+000  0.000000e+000
      vertex  1.788388e+001  8.838835e-001  0.000000e+000
    endloop
  endfacet
  facet normal  0.000000e+000  0.000000e+000 -1.000000e+000
    outer loop
      vertex  2.000000e+001 -2.000000e+000  0.000000e+000
      vertex  1.788388e+001  8.838835e-001  0.000000e+000
      vertex  2.000000e+001  2.000000e+000  0.000000e+000
    endloop
  endfacet
  facet normal  0.000000e+000  0.000000e+000 -1.000000e+000
    outer loop
      vertex  1.700000e+001 -5.000000e+000  0.000000e+000
      vertex  1.700000e+001 -1.250000e+000  0.000000e+000
      vertex  2.000000e+001 -2.000000e+000  0.000000e+000
    endloop
  endfacet
  facet normal  0.000000e+000  0.000000e+000 -1.000000e+000
    outer loop
      vertex  1.700000e+001 -5.000000e+000  0.000000e+000
      vertex  2.000000e+001 -2.000000e+000  0.000000e+000
      vertex  1.959808e+001 -3.500000e+000  0.000000e+000
    endloop
  endfacet
  facet normal  0.000000e+000  0.000000e+000 -1.000000e+000
    outer loop
      vertex  1.700000e+001 -5.000000e+000  0.000000e+000
      vertex  1.959808e+001 -3.500000e+000  0.000000e+000
      vertex  1.850000e+001 -4.598076e+000  0.000000e+000
    endloop
  endfacet
  facet normal  0.000000e+000  -0.000000e+000 -1.000000e+000
    outer loop
      vertex  9.591173e+000 -1.087471e+001  0.000000e+000
      vertex  1.027084e+001 -7.969306e+000  0.000000e+000
      vertex  1.244819e+001 -7.435897e+000  0.000000e+000
    endloop
  endfacet
  facet normal  -0.000000e+000  0.000000e+000 -1.000000e+000
    outer loop
      vertex  1.244819e+001 -7.435897e+000  0.000000e+000
      vertex  1.027084e+001 -7.969306e+000  0.000000e+000
      vertex  1.200000e+001 -5.000000e+000  0.000000e+000
    endloop
  endfacet
  facet normal  0.000000e+000  0.000000e+000 -1.000000e+000
    outer loop
      vertex  1.244819e+001 -7.435897e+000  0.000000e+000
      vertex  1.200000e+001 -5.000000e+000  0.000000e+000
      vertex  1.427293e+001 -5.651408e+000  0.000000e+000
    endloop
  endfacet
  facet normal  0.000000e+000  0.000000e+000 -1.000000e+000
    outer loop
      vertex  1.027084e+001 -7.969306e+000  0.000000e+000
      vertex  9.591173e+000 -1.087471e+001  0.000000e+000
      vertex  7.824134e+000 -1.038186e+001  0.000000e+000
    endloop
  endfacet
  facet normal  0.000000e+000  -0.000000e+000 -9.999999e-001
    outer loop
      vertex  7.824134e+000 -1.038186e+001  0.000000e+000
      vertex  9.591173e+000 -1.087471e+001  0.000000e+000
      vertex  5.822345e+000 -1.327969e+001  0.000000e+000
    endloop
  endfacet
  facet normal  0.000000e+000  0.000000e+000 -1.000000e+000
    outer loop
      vertex  7.824134e+000 -1.038186e+001  0.000000e+000
      vertex  5.822345e+000 -1.327969e+001  0.000000e+000
      vertex  4.830813e+000 -1.206910e+001  0.000000e+000
    endloop
  endfacet
  facet normal  0.000000e+000  -0.000000e+000 -1.000000e+000
    outer loop
      vertex  4.830813e+000 -1.206910e+001  0.000000e+000
      vertex  5.822345e+000 -1.327969e+001  0.000000e+000
      vertex  1.500000e+000 -1.442220e+001  0.000000e+000
    endloop
  endfacet
  facet normal  0.000000e+000  0.000000e+000 -1.000000e+000
    outer loop
      vertex  4.830813e+000 -1.206910e+001  0.000000e+000
      vertex  1.500000e+000 -1.442220e+001  0.000000e+000
      vertex  1.500000e+000 -1.291317e+001  0.000000e+000
    endloop
  endfacet
  facet normal  0.000000e+000  0.000000e+000 -1.000000e+000
    outer loop
      vertex -1.850000e+001 -4.598076e+000  0.000000e+000
      vertex -1.959808e+001 -3.500000e+000  0.000000e+000
      vertex -1.700000e+001 -5.000000e+000  0.000000e+000
    endloop
  endfacet
  facet normal  0.000000e+000  0.000000e+000 -1.000000e+000
    outer loop
      vertex -1.700000e+001 -5.000000e+000  0.000000e+000
      vertex -1.274755e+001 -2.549510e+000  0.000000e+000
      vertex -1.674067e+001 -5.000000e+000  0.000000e+000
    endloop
  endfacet
  facet normal  0.000000e+000  -0.000000e+000 -1.000000e+000
    outer loop
      vertex -2.000000e+001  2.000000e+000  0.000000e+000
      vertex -1.959808e+001  3.500000e+000  0.000000e+000
      vertex -1.700000e+001  1.250000e+000  0.000000e+000
    endloop
  endfacet
  facet normal  -0.000000e+000  0.000000e+000 -1.000000e+000
    outer loop
      vertex -2.000000e+001  2.000000e+000  0.000000e+000
      vertex -1.700000e+001  1.250000e+000  0.000000e+000
      vertex -1.788388e+001  8.838835e-001  0.000000e+000
    endloop
  endfacet
  facet normal  -0.000000e+000  0.000000e+000 -1.000000e+000
    outer loop
      vertex -2.000000e+001  2.000000e+000  0.000000e+000
      vertex -1.788388e+001  8.838835e-001  0.000000e+000
      vertex -2.000000e+001 -2.000000e+000  0.000000e+000
    endloop
  endfacet
  facet normal  -0.000000e+000  0.000000e+000 -9.999999e-001
    outer loop
      vertex -1.300000e+001  0.000000e+000  0.000000e+000
      vertex -1.274755e+001 -2.549510e+000  0.000000e+000
      vertex -1.700000e+001 -5.000000e+000  0.000000e+000
    endloop
  endfacet
  facet normal  0.000000e+000  0.000000e+000 -1.000000e+000
    outer loop
      vertex -1.300000e+001  0.000000e+000  0.000000e+000
      vertex -1.700000e+001 -5.000000e+000  0.000000e+000
      vertex -1.700000e+001 -1.250000e+000  0.000000e+000
    endloop
  endfacet
  facet normal  0.000000e+000  0.000000e+000 -1.000000e+000
    outer loop
      vertex -1.300000e+001  0.000000e+000  0.000000e+000
      vertex -1.700000e+001 -1.250000e+000  0.000000e+000
      vertex -1.611612e+001 -8.838835e-001  0.000000e+000
    endloop
  endfacet
  facet normal  0.000000e+000  0.000000e+000 -1.000000e+000
    outer loop
      vertex -1.300000e+001  0.000000e+000  0.000000e+000
      vertex -1.611612e+001 -8.838835e-001  0.000000e+000
      vertex -1.575000e+001  0.000000e+000  0.000000e+000
    endloop
  endfacet
  facet normal  0.000000e+000  0.000000e+000 -1.000000e+000
    outer loop
      vertex -1.300000e+001  0.000000e+000  0.000000e+000
      vertex -1.575000e+001  0.000000e+000  0.000000e+000
      vertex -1.611612e+001  8.838835e-001  0.000000e+000
    endloop
  endfacet
  facet normal  0.000000e+000  0.000000e+000 -1.000000e+000
    outer loop
      vertex -1.300000e+001  0.000000e+000  0.000000e+000
      vertex -1.611612e+001  8.838835e-001  0.000000e+000
      vertex -1.700000e+001  1.250000e+000  0.000000e+000
    endloop
  endfacet
  facet normal  0.000000e+000  0.000000e+000 -1.000000e+000
    outer loop
      vertex -1.300000e+001  0.000000e+000  0.000000e+000
      vertex -1.700000e+001  1.250000e+000  0.000000e+000
      vertex -1.700000e+001  5.000000e+000  0.000000e+000
    endloop
  endfacet
  facet normal  0.000000e+000  0.000000e+000 -1.000000e+000
    outer loop
      vertex -1.300000e+001  0.000000e+000  0.000000e+000
      vertex -1.700000e+001  5.000000e+000  0.000000e+000
      vertex -1.300000e+001  5.000000e+000  0.000000e+000
    endloop
  endfacet
  facet normal  0.000000e+000  0.000000e+000 -1.000000e+000
    outer loop
      vertex -1.200000e+001 -5.000000e+000  0.000000e+000
      vertex -1.027084e+001 -7.969306e+000  0.000000e+000
      vertex -1.244819e+001 -7.435897e+000  0.000000e+000
    endloop
  endfacet
  facet normal  0.000000e+000  0.000000e+000 -1.000000e+000
    outer loop
      vertex -1.200000e+001 -5.000000e+000  0.000000e+000
      vertex -1.244819e+001 -7.435897e+000  0.000000e+000
      vertex -1.427293e+001 -5.651408e+000  0.000000e+000
    endloop
  endfacet
  facet normal  0.000000e+000  0.000000e+000 -1.000000e+000
    outer loop
      vertex -1.200000e+001 -5.000000e+000  0.000000e+000
      vertex -1.427293e+001 -5.651408e+000  0.000000e+000
      vertex -1.674067e+001 -5.000000e+000  0.000000e+000
    endloop
  endfacet
  facet normal  0.000000e+000  0.000000e+000 -1.000000e+000
    outer loop
      vertex -1.200000e+001 -5.000000e+000  0.000000e+000
      vertex -1.674067e+001 -5.000000e+000  0.000000e+000
      vertex -1.274755e+001 -2.549510e+000  0.000000e+000
    endloop
  endfacet
  facet normal  0.000000e+000  0.000000e+000 -1.000000e+000
    outer loop
      vertex -2.000000e+001 -2.000000e+000  0.000000e+000
      vertex -1.788388e+001  8.838835e-001  0.000000e+000
      vertex -1.825000e+001 -1.530808e-016  0.000000e+000
    endloop
  endfacet
  facet normal  0.000000e+000  -0.000000e+000 -1.000000e+000
    outer loop
      vertex -2.000000e+001 -2.000000e+000  0.000000e+000
      vertex -1.825000e+001 -1.530808e-016  0.000000e+000
      vertex -1.788388e+001 -8.838835e-001  0.000000e+000
    endloop
  endfacet
  facet normal  0.000000e+000  -0.000000e+000 -1.000000e+000
    outer loop
      vertex -2.000000e+001 -2.000000e+000  0.000000e+000
      vertex -1.788388e+001 -8.838835e-001  0.000000e+000
      vertex -1.700000e+001 -1.250000e+000  0.000000e+000
    endloop
  endfacet
  facet normal  0.000000e+000  -0.000000e+000 -1.000000e+000
    outer loop
      vertex -2.000000e+001 -2.000000e+000  0.000000e+000
      vertex -1.700000e+001 -1.250000e+000  0.000000e+000
      vertex -1.700000e+001 -5.000000e+000  0.000000e+000
    endloop
  endfacet
  facet normal  0.000000e+000  0.000000e+000 -1.000000e+000
    outer loop
      vertex -2.000000e+001 -2.000000e+000  0.000000e+000
      vertex -1.700000e+001 -5.000000e+000  0.000000e+000
      vertex -1.959808e+001 -3.500000e+000  0.000000e+000
    endloop
  endfacet
  facet normal  0.000000e+000  0.000000e+000 -1.000000e+000
    outer loop
      vertex -7.824134e+000 -1.038186e+001  0.000000e+000
      vertex -1.244819e+001 -7.435897e+000  0.000000e+000
      vertex -1.027084e+001 -7.969306e+000  0.000000e+000
    endloop
  endfacet
  facet normal  -0.000000e+000  0.000000e+000 -1.000000e+000
    outer loop
      vertex -1.244819e+001 -7.435897e+000  0.000000e+000
      vertex -7.824134e+000 -1.038186e+001  0.000000e+000
      vertex -9.591173e+000 -1.087471e+001  0.000000e+000
    endloop
  endfacet
  facet normal  0.000000e+000  0.000000e+000 -1.000000e+000
    outer loop
      vertex -9.591173e+000 -1.087471e+001  0.000000e+000
      vertex -7.824134e+000 -1.038186e+001  0.000000e+000
      vertex -4.830813e+000 -1.206910e+001  0.000000e+000
    endloop
  endfacet
  facet normal  -0.000000e+000  0.000000e+000 -1.000000e+000
    outer loop
      vertex -9.591173e+000 -1.087471e+001  0.000000e+000
      vertex -4.830813e+000 -1.206910e+001  0.000000e+000
      vertex -5.822345e+000 -1.327969e+001  0.000000e+000
    endloop
  endfacet
  facet normal  0.000000e+000  0.000000e+000 -9.999999e-001
    outer loop
      vertex -5.822345e+000 -1.327969e+001  0.000000e+000
      vertex -4.830813e+000 -1.206910e+001  0.000000e+000
      vertex -1.500000e+000 -1.291317e+001  0.000000e+000
    endloop
  endfacet
  facet normal  0.000000e+000  -0.000000e+000 -1.000000e+000
    outer loop
      vertex -5.822345e+000 -1.327969e+001  0.000000e+000
      vertex -1.500000e+000 -1.291317e+001  0.000000e+000
      vertex -1.500000e+000 -1.442220e+001  0.000000e+000
    endloop
  endfacet
  facet normal  0.000000e+000  0.000000e+000 -1.000000e+000
    outer loop
      vertex -1.850000e+001  4.598076e+000  0.000000e+000
      vertex -1.700000e+001  5.000000e+000  0.000000e+000
      vertex -1.959808e+001  3.500000e+000  0.000000e+000
    endloop
  endfacet
  facet normal  0.000000e+000  0.000000e+000 -1.000000e+000
    outer loop
      vertex -1.959808e+001  3.500000e+000  0.000000e+000
      vertex -1.700000e+001  5.000000e+000  0.000000e+000
      vertex -1.700000e+001  1.250000e+000  0.000000e+000
    endloop
  endfacet
  facet normal  9.564757e-001  2.917834e-001  4.093756e-003
    outer loop
      vertex -1.274755e+001 -2.549510e+000  0.000000e+000
      vertex -1.221600e+001 -4.446262e+000  1.100000e+001
      vertex -1.200000e+001 -5.000000e+000  0.000000e+000
    endloop
  endfacet
  facet normal  6.427018e-001  7.659423e-001 -1.633585e-002
    outer loop
      vertex -6.500000e+000 -1.125833e+001  1.100000e+001
      vertex -7.824134e+000 -1.038186e+001  0.000000e+000
      vertex -9.958578e+000 -8.356239e+000  1.100000e+001
    endloop
  endfacet
  facet normal  4.910097e-001  8.710931e-001  1.030256e-002
    outer loop
      vertex -4.830813e+000 -1.206910e+001  0.000000e+000
      vertex -7.824134e+000 -1.038186e+001  0.000000e+000
      vertex -6.500000e+000 -1.125833e+001  1.100000e+001
    endloop
  endfacet
  facet normal  3.419686e-001  9.395511e-001 -1.735938e-002
    outer loop
      vertex -2.257426e+000 -1.280250e+001  1.100000e+001
      vertex -4.830813e+000 -1.206910e+001  0.000000e+000
      vertex -6.500000e+000 -1.125833e+001  1.100000e+001
    endloop
  endfacet
  facet normal -3.419686e-001  9.395511e-001 -1.735938e-002
    outer loop
      vertex  6.500000e+000 -1.125833e+001  1.100000e+001
      vertex  4.830813e+000 -1.206910e+001  0.000000e+000
      vertex  2.257426e+000 -1.280250e+001  1.100000e+001
    endloop
  endfacet
  facet normal -4.910097e-001  8.710931e-001  1.030256e-002
    outer loop
      vertex  6.500000e+000 -1.125833e+001  1.100000e+001
      vertex  7.824134e+000 -1.038186e+001  0.000000e+000
      vertex  4.830813e+000 -1.206910e+001  0.000000e+000
    endloop
  endfacet
  facet normal -6.427018e-001  7.659423e-001 -1.633585e-002
    outer loop
      vertex  7.824134e+000 -1.038186e+001  0.000000e+000
      vertex  6.500000e+000 -1.125833e+001  1.100000e+001
      vertex  9.958578e+000 -8.356239e+000  1.100000e+001
    endloop
  endfacet
  facet normal -7.021098e-001  7.120503e-001  5.115762e-003
    outer loop
      vertex  9.958578e+000 -8.356239e+000  1.100000e+001
      vertex  1.027084e+001 -7.969306e+000  0.000000e+000
      vertex  7.824134e+000 -1.038186e+001  0.000000e+000
    endloop
  endfacet
  facet normal -2.456474e-001  9.693592e-001  0.000000e+000
    outer loop
      vertex  1.500000e+000 -1.291317e+001  1.500000e+000
      vertex  4.830813e+000 -1.206910e+001  0.000000e+000
      vertex  1.500000e+000 -1.291317e+001  0.000000e+000
    endloop
  endfacet
  facet normal -2.422476e-001  9.701814e-001  8.011971e-003
    outer loop
      vertex  4.830813e+000 -1.206910e+001  0.000000e+000
      vertex  1.500000e+000 -1.291317e+001  1.500000e+000
      vertex  2.257426e+000 -1.280250e+001  1.100000e+001
    endloop
  endfacet
  facet normal  0.000000e+000  9.999322e-001 -1.164879e-002
    outer loop
      vertex  2.257426e+000 -1.280250e+001  1.100000e+001
      vertex  1.500000e+000 -1.291317e+001  1.500000e+000
      vertex -1.500000e+000 -1.291317e+001  1.500000e+000
    endloop
  endfacet
  facet normal  0.000000e+000  9.999321e-001 -1.164879e-002
    outer loop
      vertex  2.257426e+000 -1.280250e+001  1.100000e+001
      vertex -1.500000e+000 -1.291317e+001  1.500000e+000
      vertex -2.257426e+000 -1.280250e+001  1.100000e+001
    endloop
  endfacet
  facet normal  1.445794e-001  9.894931e-001  0.000000e+000
    outer loop
      vertex -2.257426e+000 -1.280250e+001  1.100000e+001
      vertex -1.500000e+000 -1.291317e+001  1.500000e+000
      vertex -1.500000e+000 -1.291317e+001  0.000000e+000
    endloop
  endfacet
  facet normal  2.456411e-001  9.693344e-001  7.161615e-003
    outer loop
      vertex -2.257426e+000 -1.280250e+001  1.100000e+001
      vertex -1.500000e+000 -1.291317e+001  0.000000e+000
      vertex -4.830813e+000 -1.206910e+001  0.000000e+000
    endloop
  endfacet
  facet normal  9.951334e-001  9.853751e-002  5.229192e-017
    outer loop
      vertex -1.300000e+001  0.000000e+000  0.000000e+000
      vertex -1.300000e+001 -1.592041e-015  3.000000e+000
      vertex -1.274755e+001 -2.549510e+000  0.000000e+000
    endloop
  endfacet
  facet normal  9.951333e-001  9.853751e-002  0.000000e+000
    outer loop
      vertex -1.274755e+001 -2.549510e+000  0.000000e+000
      vertex -1.300000e+001 -1.592041e-015  3.000000e+000
      vertex -1.300000e+001  0.000000e+000  1.100000e+001
    endloop
  endfacet
  facet normal  9.846545e-001  1.736211e-001 -1.764288e-002
    outer loop
      vertex -1.274755e+001 -2.549510e+000  0.000000e+000
      vertex -1.300000e+001  0.000000e+000  1.100000e+001
      vertex -1.221600e+001 -4.446262e+000  1.100000e+001
    endloop
  endfacet
  facet normal  7.021098e-001  7.120503e-001  5.115762e-003
    outer loop
      vertex -7.824134e+000 -1.038186e+001  0.000000e+000
      vertex -1.027084e+001 -7.969306e+000  0.000000e+000
      vertex -9.958578e+000 -8.356239e+000  1.100000e+001
    endloop
  endfacet
  facet normal  8.641304e-001  5.032217e-001 -6.829300e-003
    outer loop
      vertex -9.958578e+000 -8.356239e+000  1.100000e+001
      vertex -1.027084e+001 -7.969306e+000  0.000000e+000
      vertex -1.200000e+001 -5.000000e+000  0.000000e+000
    endloop
  endfacet
  facet normal  8.659966e-001  4.999833e-001 -8.163706e-003
    outer loop
      vertex -9.958578e+000 -8.356239e+000  1.100000e+001
      vertex -1.200000e+001 -5.000000e+000  0.000000e+000
      vertex -1.221600e+001 -4.446262e+000  1.100000e+001
    endloop
  endfacet
  facet normal -9.564757e-001  2.917834e-001  4.093756e-003
    outer loop
      vertex  1.274755e+001 -2.549510e+000  0.000000e+000
      vertex  1.200000e+001 -5.000000e+000  0.000000e+000
      vertex  1.221600e+001 -4.446262e+000  1.100000e+001
    endloop
  endfacet
  facet normal -8.641203e-001  5.032158e-001 -8.363273e-003
    outer loop
      vertex  1.221600e+001 -4.446262e+000  1.100000e+001
      vertex  1.200000e+001 -5.000000e+000  0.000000e+000
      vertex  1.027084e+001 -7.969306e+000  0.000000e+000
    endloop
  endfacet
  facet normal -8.660042e-001  4.999877e-001 -6.996252e-003
    outer loop
      vertex  1.221600e+001 -4.446262e+000  1.100000e+001
      vertex  1.027084e+001 -7.969306e+000  0.000000e+000
      vertex  9.958578e+000 -8.356239e+000  1.100000e+001
    endloop
  endfacet
  facet normal -9.951333e-001  9.853751e-002  0.000000e+000
    outer loop
      vertex  1.300000e+001  0.000000e+000  0.000000e+000
      vertex  1.274755e+001 -2.549510e+000  0.000000e+000
      vertex  1.300000e+001  0.000000e+000  3.000000e+000
    endloop
  endfacet
  facet normal -9.913790e-001  1.284697e-001 -2.575337e-002
    outer loop
      vertex  1.300000e+001  0.000000e+000  3.000000e+000
      vertex  1.274755e+001 -2.549510e+000  0.000000e+000
      vertex  1.221600e+001 -4.446262e+000  1.100000e+001
    endloop
  endfacet
  facet normal -9.848077e-001  1.736481e-001  0.000000e+000
    outer loop
      vertex  1.300000e+001  0.000000e+000  3.000000e+000
      vertex  1.221600e+001 -4.446262e+000  1.100000e+001
      vertex  1.300000e+001  0.000000e+000  1.100000e+001
    endloop
  endfacet
  facet normal -1.000000e+000  0.000000e+000  0.000000e+000
    outer loop
      vertex  1.500000e+000 -1.291317e+001  1.500000e+000
      vertex  1.500000e+000 -1.291317e+001  0.000000e+000
      vertex  1.500000e+000 -1.442220e+001  1.500000e+000
    endloop
  endfacet
  facet normal -1.000000e+000  0.000000e+000  0.000000e+000
    outer loop
      vertex  1.500000e+000 -1.442220e+001  1.500000e+000
      vertex  1.500000e+000 -1.291317e+001  0.000000e+000
      vertex  1.500000e+000 -1.442220e+001  0.000000e+000
    endloop
  endfacet
  facet normal  1.000000e+000  0.000000e+000  0.000000e+000
    outer loop
      vertex -1.500000e+000 -1.291317e+001  0.000000e+000
      vertex -1.500000e+000 -1.291317e+001  1.500000e+000
      vertex -1.500000e+000 -1.442220e+001  0.000000e+000
    endloop
  endfacet
  facet normal  1.000000e+000  0.000000e+000  0.000000e+000
    outer loop
      vertex -1.500000e+000 -1.442220e+001  0.000000e+000
      vertex -1.500000e+000 -1.291317e+001  1.500000e+000
      vertex -1.500000e+000 -1.442220e+001  1.500000e+000
    endloop
  endfacet
  facet normal  0.000000e+000  0.000000e+000 -1.000000e+000
    outer loop
      vertex  1.500000e+000 -1.291317e+001  1.500000e+000
      vertex  1.500000e+000 -1.442220e+001  1.500000e+000
      vertex -1.500000e+000 -1.291317e+001  1.500000e+000
    endloop
  endfacet
  facet normal  0.000000e+000  0.000000e+000 -1.000000e+000
    outer loop
      vertex -1.500000e+000 -1.291317e+001  1.500000e+000
      vertex  1.500000e+000 -1.442220e+001  1.500000e+000
      vertex -1.500000e+000 -1.442220e+001  1.500000e+000
    endloop
  endfacet
  facet normal  0.000000e+000  0.000000e+000 -1.000000e+000
    outer loop
      vertex -1.221600e+001 -4.446262e+000  1.100000e+001
      vertex -1.300000e+001  0.000000e+000  1.100000e+001
      vertex -3.000000e+000  0.000000e+000  1.100000e+001
    endloop
  endfacet
  facet normal  0.000000e+000  -0.000000e+000 -9.999999e-001
    outer loop
      vertex -1.221600e+001 -4.446262e+000  1.100000e+001
      vertex -3.000000e+000  0.000000e+000  1.100000e+001
      vertex -2.427051e+000 -1.763356e+000  1.100000e+001
    endloop
  endfacet
  facet normal  0.000000e+000  -0.000000e+000 -9.999999e-001
    outer loop
      vertex -1.221600e+001 -4.446262e+000  1.100000e+001
      vertex -2.427051e+000 -1.763356e+000  1.100000e+001
      vertex -9.270510e-001 -2.853169e+000  1.100000e+001
    endloop
  endfacet
  facet normal  0.000000e+000  -0.000000e+000 -1.000000e+000
    outer loop
      vertex -1.221600e+001 -4.446262e+000  1.100000e+001
      vertex -9.270510e-001 -2.853169e+000  1.100000e+001
      vertex  9.270510e-001 -2.853169e+000  1.100000e+001
    endloop
  endfacet
  facet normal  0.000000e+000  -0.000000e+000 -1.000000e+000
    outer loop
      vertex -1.221600e+001 -4.446262e+000  1.100000e+001
      vertex  9.270510e-001 -2.853169e+000  1.100000e+001
      vertex  1.221600e+001 -4.446262e+000  1.100000e+001
    endloop
  endfacet
  facet normal  -0.000000e+000  0.000000e+000 -9.999999e-001
    outer loop
      vertex -1.221600e+001 -4.446262e+000  1.100000e+001
      vertex  1.221600e+001 -4.446262e+000  1.100000e+001
      vertex  9.958578e+000 -8.356239e+000  1.100000e+001
    endloop
  endfacet
  facet normal  0.000000e+000  0.000000e+000 -1.000000e+000
    outer loop
      vertex -1.221600e+001 -4.446262e+000  1.100000e+001
      vertex  9.958578e+000 -8.356239e+000  1.100000e+001
      vertex -9.958578e+000 -8.356239e+000  1.100000e+001
    endloop
  endfacet
  facet normal  0.000000e+000  -0.000000e+000 -9.999999e-001
    outer loop
      vertex  9.270510e-001 -2.853169e+000  1.100000e+001
      vertex  2.427051e+000 -1.763356e+000  1.100000e+001
      vertex  1.221600e+001 -4.446262e+000  1.100000e+001
    endloop
  endfacet
  facet normal  0.000000e+000  0.000000e+000 -1.000000e+000
    outer loop
      vertex  1.221600e+001 -4.446262e+000  1.100000e+001
      vertex  2.427051e+000 -1.763356e+000  1.100000e+001
      vertex  3.000000e+000  0.000000e+000  1.100000e+001
    endloop
  endfacet
  facet normal  0.000000e+000  0.000000e+000 -1.000000e+000
    outer loop
      vertex  1.221600e+001 -4.446262e+000  1.100000e+001
      vertex  3.000000e+000  0.000000e+000  1.100000e+001
      vertex  1.300000e+001  0.000000e+000  1.100000e+001
    endloop
  endfacet
  facet normal  0.000000e+000  0.000000e+000 -1.000000e+000
    outer loop
      vertex  9.958578e+000 -8.356239e+000  1.100000e+001
      vertex  6.500000e+000 -1.125833e+001  1.100000e+001
      vertex -9.958578e+000 -8.356239e+000  1.100000e+001
    endloop
  endfacet
  facet normal  0.000000e+000  0.000000e+000 -1.000000e+000
    outer loop
      vertex -9.958578e+000 -8.356239e+000  1.100000e+001
      vertex  6.500000e+000 -1.125833e+001  1.100000e+001
      vertex -6.500000e+000 -1.125833e+001  1.100000e+001
    endloop
  endfacet
  facet normal  0.000000e+000  0.000000e+000 -1.000000e+000
    outer loop
      vertex  6.500000e+000 -1.125833e+001  1.100000e+001
      vertex  2.257426e+000 -1.280250e+001  1.100000e+001
      vertex -6.500000e+000 -1.125833e+001  1.100000e+001
    endloop
  endfacet
  facet normal  0.000000e+000  0.000000e+000 -9.999999e-001
    outer loop
      vertex -6.500000e+000 -1.125833e+001  1.100000e+001
      vertex  2.257426e+000 -1.280250e+001  1.100000e+001
      vertex -2.257426e+000 -1.280250e+001  1.100000e+001
    endloop
  endfacet
  facet normal  0.000000e+000  0.000000e+000  1.000000e+000
    outer loop
      vertex  1.244819e+001 -7.435897e+000  3.000000e+000
      vertex  1.427293e+001 -5.651408e+000  3.000000e+000
      vertex  1.361066e+001 -5.000000e+000  3.000000e+000
    endloop
  endfacet
  facet normal  0.000000e+000  0.000000e+000  1.000000e+000
    outer loop
      vertex  1.427593e+001 -2.539238e+000  3.000000e+000
      vertex  1.700000e+001 -1.250000e+000  3.000000e+000
      vertex  1.611612e+001 -8.838835e-001  3.000000e+000
    endloop
  endfacet
  facet normal  0.000000e+000  0.000000e+000  1.000000e+000
    outer loop
      vertex  1.611612e+001  8.838835e-001  3.000000e+000
      vertex  1.700000e+001  1.250000e+000  3.000000e+000
      vertex  1.300000e+001  0.000000e+000  3.000000e+000
    endloop
  endfacet
  facet normal  0.000000e+000  0.000000e+000  1.000000e+000
    outer loop
      vertex  1.450000e+001  0.000000e+000  3.000000e+000
      vertex  1.427593e+001 -2.539238e+000  3.000000e+000
      vertex  1.611612e+001 -8.838835e-001  3.000000e+000
    endloop
  endfacet
  facet normal  0.000000e+000  0.000000e+000  1.000000e+000
    outer loop
      vertex  1.450000e+001  0.000000e+000  3.000000e+000
      vertex  1.611612e+001 -8.838835e-001  3.000000e+000
      vertex  1.575000e+001 -4.205855e-017  3.000000e+000
    endloop
  endfacet
  facet normal  0.000000e+000  -0.000000e+000  1.000000e+000
    outer loop
      vertex  1.450000e+001  0.000000e+000  3.000000e+000
      vertex  1.575000e+001 -4.205855e-017  3.000000e+000
      vertex  1.611612e+001  8.838835e-001  3.000000e+000
    endloop
  endfacet
  facet normal  0.000000e+000  0.000000e+000  1.000000e+000
    outer loop
      vertex  1.450000e+001  0.000000e+000  3.000000e+000
      vertex  1.611612e+001  8.838835e-001  3.000000e+000
      vertex  1.300000e+001  0.000000e+000  3.000000e+000
    endloop
  endfacet
  facet normal  0.000000e+000  -0.000000e+000  1.000000e+000
    outer loop
      vertex  1.674067e+001 -5.000000e+000  3.000000e+000
      vertex  1.700000e+001 -5.000000e+000  3.000000e+000
      vertex  1.700000e+001 -1.250000e+000  3.000000e+000
    endloop
  endfacet
  facet normal  0.000000e+000  0.000000e+000  1.000000e+000
    outer loop
      vertex  1.674067e+001 -5.000000e+000  3.000000e+000
      vertex  1.700000e+001 -1.250000e+000  3.000000e+000
      vertex  1.427593e+001 -2.539238e+000  3.000000e+000
    endloop
  endfacet
  facet normal  0.000000e+000  0.000000e+000  1.000000e+000
    outer loop
      vertex  1.674067e+001 -5.000000e+000  3.000000e+000
      vertex  1.427593e+001 -2.539238e+000  3.000000e+000
      vertex  1.361066e+001 -5.000000e+000  3.000000e+000
    endloop
  endfacet
  facet normal  -0.000000e+000  0.000000e+000  1.000000e+000
    outer loop
      vertex  1.674067e+001 -5.000000e+000  3.000000e+000
      vertex  1.361066e+001 -5.000000e+000  3.000000e+000
      vertex  1.427293e+001 -5.651408e+000  3.000000e+000
    endloop
  endfacet
  facet normal  0.000000e+000  0.000000e+000  1.000000e+000
    outer loop
      vertex  1.700000e+001 -1.250000e+000  3.000000e+000
      vertex  1.700000e+001 -5.000000e+000  3.000000e+000
      vertex  1.850000e+001 -4.598076e+000  3.000000e+000
    endloop
  endfacet
  facet normal  0.000000e+000  -0.000000e+000  1.000000e+000
    outer loop
      vertex  1.700000e+001 -1.250000e+000  3.000000e+000
      vertex  1.850000e+001 -4.598076e+000  3.000000e+000
      vertex  1.959808e+001 -3.500000e+000  3.000000e+000
    endloop
  endfacet
  facet normal  0.000000e+000  -0.000000e+000  1.000000e+000
    outer loop
      vertex  1.700000e+001 -1.250000e+000  3.000000e+000
      vertex  1.959808e+001 -3.500000e+000  3.000000e+000
      vertex  2.000000e+001 -2.000000e+000  3.000000e+000
    endloop
  endfacet
  facet normal  0.000000e+000  0.000000e+000  1.000000e+000
    outer loop
      vertex  1.700000e+001 -1.250000e+000  3.000000e+000
      vertex  2.000000e+001 -2.000000e+000  3.000000e+000
      vertex  1.788388e+001 -8.838835e-001  3.000000e+000
    endloop
  endfacet
  facet normal  -0.000000e+000  0.000000e+000  1.000000e+000
    outer loop
      vertex  2.000000e+001  2.000000e+000  3.000000e+000
      vertex  1.700000e+001  1.250000e+000  3.000000e+000
      vertex  1.788388e+001  8.838835e-001  3.000000e+000
    endloop
  endfacet
  facet normal  -0.000000e+000  0.000000e+000  1.000000e+000
    outer loop
      vertex  2.000000e+001  2.000000e+000  3.000000e+000
      vertex  1.788388e+001  8.838835e-001  3.000000e+000
      vertex  1.825000e+001  8.411709e-017  3.000000e+000
    endloop
  endfacet
  facet normal  -0.000000e+000  0.000000e+000  1.000000e+000
    outer loop
      vertex  2.000000e+001  2.000000e+000  3.000000e+000
      vertex  1.825000e+001  8.411709e-017  3.000000e+000
      vertex  1.788388e+001 -8.838835e-001  3.000000e+000
    endloop
  endfacet
  facet normal  -0.000000e+000  0.000000e+000  1.000000e+000
    outer loop
      vertex  2.000000e+001  2.000000e+000  3.000000e+000
      vertex  1.788388e+001 -8.838835e-001  3.000000e+000
      vertex  2.000000e+001 -2.000000e+000  3.000000e+000
    endloop
  endfacet
  facet normal  -0.000000e+000  0.000000e+000  1.000000e+000
    outer loop
      vertex  1.700000e+001  5.000000e+000  3.000000e+000
      vertex  1.300000e+001  5.000000e+000  3.000000e+000
      vertex  1.300000e+001  0.000000e+000  3.000000e+000
    endloop
  endfacet
  facet normal  0.000000e+000  0.000000e+000  1.000000e+000
    outer loop
      vertex  1.700000e+001  5.000000e+000  3.000000e+000
      vertex  1.300000e+001  0.000000e+000  3.000000e+000
      vertex  1.700000e+001  1.250000e+000  3.000000e+000
    endloop
  endfacet
  facet normal  0.000000e+000  0.000000e+000  1.000000e+000
    outer loop
      vertex  1.700000e+001  5.000000e+000  3.000000e+000
      vertex  1.700000e+001  1.250000e+000  3.000000e+000
      vertex  2.000000e+001  2.000000e+000  3.000000e+000
    endloop
  endfacet
  facet normal  0.000000e+000  0.000000e+000  1.000000e+000
    outer loop
      vertex  1.700000e+001  5.000000e+000  3.000000e+000
      vertex  2.000000e+001  2.000000e+000  3.000000e+000
      vertex  1.959808e+001  3.500000e+000  3.000000e+000
    endloop
  endfacet
  facet normal  0.000000e+000  0.000000e+000  1.000000e+000
    outer loop
      vertex  1.700000e+001  5.000000e+000  3.000000e+000
      vertex  1.959808e+001  3.500000e+000  3.000000e+000
      vertex  1.850000e+001  4.598076e+000  3.000000e+000
    endloop
  endfacet
  facet normal  1.000000e+000  -0.000000e+000  0.000000e+000
    outer loop
      vertex  2.000000e+001  2.000000e+000  3.000000e+000
      vertex  2.000000e+001 -2.000000e+000  3.000000e+000
      vertex  2.000000e+001  2.000000e+000  0.000000e+000
    endloop
  endfacet
  facet normal  1.000000e+000  0.000000e+000  0.000000e+000
    outer loop
      vertex  2.000000e+001  2.000000e+000  0.000000e+000
      vertex  2.000000e+001 -2.000000e+000  3.000000e+000
      vertex  2.000000e+001 -2.000000e+000  0.000000e+000
    endloop
  endfacet
  facet normal  0.000000e+000  1.000000e+000  -0.000000e+000
    outer loop
      vertex  1.700000e+001  5.000000e+000  3.000000e+000
      vertex  1.700000e+001  5.000000e+000  0.000000e+000
      vertex  1.300000e+001  5.000000e+000  3.000000e+000
    endloop
  endfacet
  facet normal  0.000000e+000  1.000000e+000  0.000000e+000
    outer loop
      vertex  1.300000e+001  5.000000e+000  3.000000e+000
      vertex  1.700000e+001  5.000000e+000  0.000000e+000
      vertex  1.300000e+001  5.000000e+000  0.000000e+000
    endloop
  endfacet
  facet normal  2.588190e-001  9.659258e-001  0.000000e+000
    outer loop
      vertex  1.700000e+001  5.000000e+000  0.000000e+000
      vertex  1.700000e+001  5.000000e+000  3.000000e+000
      vertex  1.850000e+001  4.598076e+000  0.000000e+000
    endloop
  endfacet
  facet normal  2.588190e-001  9.659258e-001  -0.000000e+000
    outer loop
      vertex  1.850000e+001  4.598076e+000  0.000000e+000
      vertex  1.700000e+001  5.000000e+000  3.000000e+000
      vertex  1.850000e+001  4.598076e+000  3.000000e+000
    endloop
  endfacet
  facet normal  7.071069e-001  7.071066e-001  0.000000e+000
    outer loop
      vertex  1.850000e+001  4.598076e+000  0.000000e+000
      vertex  1.850000e+001  4.598076e+000  3.000000e+000
      vertex  1.959808e+001  3.500000e+000  0.000000e+000
    endloop
  endfacet
  facet normal  7.071069e-001  7.071066e-001  -0.000000e+000
    outer loop
      vertex  1.959808e+001  3.500000e+000  0.000000e+000
      vertex  1.850000e+001  4.598076e+000  3.000000e+000
      vertex  1.959808e+001  3.500000e+000  3.000000e+000
    endloop
  endfacet
  facet normal  9.659257e-001  2.588192e-001  0.000000e+000
    outer loop
      vertex  1.959808e+001  3.500000e+000  0.000000e+000
      vertex  1.959808e+001  3.500000e+000  3.000000e+000
      vertex  2.000000e+001  2.000000e+000  0.000000e+000
    endloop
  endfacet
  facet normal  9.659257e-001  2.588192e-001  -0.000000e+000
    outer loop
      vertex  2.000000e+001  2.000000e+000  0.000000e+000
      vertex  1.959808e+001  3.500000e+000  3.000000e+000
      vertex  2.000000e+001  2.000000e+000  3.000000e+000
    endloop
  endfacet
  facet normal  0.000000e+000  0.000000e+000  1.000000e+000
    outer loop
      vertex -1.850000e+001  4.598076e+000  3.000000e+000
      vertex -1.959808e+001  3.500000e+000  3.000000e+000
      vertex -1.700000e+001  5.000000e+000  3.000000e+000
    endloop
  endfacet
  facet normal  -0.000000e+000  0.000000e+000  1.000000e+000
    outer loop
      vertex -1.611612e+001 -8.838835e-001  3.000000e+000
      vertex -1.700000e+001 -1.250000e+000  3.000000e+000
      vertex -1.427593e+001 -2.539238e+000  3.000000e+000
    endloop
  endfacet
  facet normal  0.000000e+000  -0.000000e+000  1.000000e+000
    outer loop
      vertex -2.000000e+001 -2.000000e+000  3.000000e+000
      vertex -1.959808e+001 -3.500000e+000  3.000000e+000
      vertex -1.700000e+001 -1.250000e+000  3.000000e+000
    endloop
  endfacet
  facet normal  0.000000e+000  0.000000e+000  1.000000e+000
    outer loop
      vertex -2.000000e+001 -2.000000e+000  3.000000e+000
      vertex -1.700000e+001 -1.250000e+000  3.000000e+000
      vertex -1.788388e+001 -8.838835e-001  3.000000e+000
    endloop
  endfacet
  facet normal  0.000000e+000  0.000000e+000  1.000000e+000
    outer loop
      vertex -2.000000e+001 -2.000000e+000  3.000000e+000
      vertex -1.788388e+001 -8.838835e-001  3.000000e+000
      vertex -2.000000e+001  2.000000e+000  3.000000e+000
    endloop
  endfacet
  facet normal  0.000000e+000  0.000000e+000  1.000000e+000
    outer loop
      vertex -1.361066e+001 -5.000000e+000  3.000000e+000
      vertex -1.427593e+001 -2.539238e+000  3.000000e+000
      vertex -1.674067e+001 -5.000000e+000  3.000000e+000
    endloop
  endfacet
  facet normal  -0.000000e+000  0.000000e+000  1.000000e+000
    outer loop
      vertex -1.361066e+001 -5.000000e+000  3.000000e+000
      vertex -1.674067e+001 -5.000000e+000  3.000000e+000
      vertex -1.427293e+001 -5.651408e+000  3.000000e+000
    endloop
  endfacet
  facet normal  -0.000000e+000  0.000000e+000  1.000000e+000
    outer loop
      vertex -1.361066e+001 -5.000000e+000  3.000000e+000
      vertex -1.427293e+001 -5.651408e+000  3.000000e+000
      vertex -1.244819e+001 -7.435897e+000  3.000000e+000
    endloop
  endfacet
  facet normal  0.000000e+000  0.000000e+000  1.000000e+000
    outer loop
      vertex -1.450000e+001  0.000000e+000  3.000000e+000
      vertex -1.611612e+001  8.838835e-001  3.000000e+000
      vertex -1.575000e+001  8.411709e-017  3.000000e+000
    endloop
  endfacet
  facet normal  0.000000e+000  0.000000e+000  1.000000e+000
    outer loop
      vertex -1.450000e+001  0.000000e+000  3.000000e+000
      vertex -1.575000e+001  8.411709e-017  3.000000e+000
      vertex -1.611612e+001 -8.838835e-001  3.000000e+000
    endloop
  endfacet
  facet normal  -0.000000e+000  0.000000e+000  1.000000e+000
    outer loop
      vertex -1.450000e+001  0.000000e+000  3.000000e+000
      vertex -1.611612e+001 -8.838835e-001  3.000000e+000
      vertex -1.427593e+001 -2.539238e+000  3.000000e+000
    endloop
  endfacet
  facet normal  0.000000e+000  0.000000e+000  1.000000e+000
    outer loop
      vertex -1.300000e+001 -1.592041e-015  3.000000e+000
      vertex -1.300000e+001  5.000000e+000  3.000000e+000
      vertex -1.700000e+001  5.000000e+000  3.000000e+000
    endloop
  endfacet
  facet normal  0.000000e+000  0.000000e+000  1.000000e+000
    outer loop
      vertex -1.300000e+001 -1.592041e-015  3.000000e+000
      vertex -1.700000e+001  5.000000e+000  3.000000e+000
      vertex -1.700000e+001  1.250000e+000  3.000000e+000
    endloop
  endfacet
  facet normal  0.000000e+000  0.000000e+000  1.000000e+000
    outer loop
      vertex -1.300000e+001 -1.592041e-015  3.000000e+000
      vertex -1.700000e+001  1.250000e+000  3.000000e+000
      vertex -1.611612e+001  8.838835e-001  3.000000e+000
    endloop
  endfacet
  facet normal  0.000000e+000  0.000000e+000  1.000000e+000
    outer loop
      vertex -1.300000e+001 -1.592041e-015  3.000000e+000
      vertex -1.611612e+001  8.838835e-001  3.000000e+000
      vertex -1.450000e+001  0.000000e+000  3.000000e+000
    endloop
  endfacet
  facet normal  0.000000e+000  0.000000e+000  1.000000e+000
    outer loop
      vertex -2.000000e+001  2.000000e+000  3.000000e+000
      vertex -1.788388e+001 -8.838835e-001  3.000000e+000
      vertex -1.825000e+001 -4.205855e-017  3.000000e+000
    endloop
  endfacet
  facet normal  0.000000e+000  -0.000000e+000  1.000000e+000
    outer loop
      vertex -2.000000e+001  2.000000e+000  3.000000e+000
      vertex -1.825000e+001 -4.205855e-017  3.000000e+000
      vertex -1.788388e+001  8.838835e-001  3.000000e+000
    endloop
  endfacet
  facet normal  0.000000e+000  -0.000000e+000  1.000000e+000
    outer loop
      vertex -2.000000e+001  2.000000e+000  3.000000e+000
      vertex -1.788388e+001  8.838835e-001  3.000000e+000
      vertex -1.700000e+001  1.250000e+000  3.000000e+000
    endloop
  endfacet
  facet normal  0.000000e+000  -0.000000e+000  1.000000e+000
    outer loop
      vertex -2.000000e+001  2.000000e+000  3.000000e+000
      vertex -1.700000e+001  1.250000e+000  3.000000e+000
      vertex -1.700000e+001  5.000000e+000  3.000000e+000
    endloop
  endfacet
  facet normal  0.000000e+000  0.000000e+000  1.000000e+000
    outer loop
      vertex -2.000000e+001  2.000000e+000  3.000000e+000
      vertex -1.700000e+001  5.000000e+000  3.000000e+000
      vertex -1.959808e+001  3.500000e+000  3.000000e+000
    endloop
  endfacet
  facet normal  0.000000e+000  0.000000e+000  1.000000e+000
    outer loop
      vertex -1.427593e+001 -2.539238e+000  3.000000e+000
      vertex -1.700000e+001 -1.250000e+000  3.000000e+000
      vertex -1.674067e+001 -5.000000e+000  3.000000e+000
    endloop
  endfacet
  facet normal  0.000000e+000  0.000000e+000  1.000000e+000
    outer loop
      vertex -1.674067e+001 -5.000000e+000  3.000000e+000
      vertex -1.700000e+001 -1.250000e+000  3.000000e+000
      vertex -1.700000e+001 -5.000000e+000  3.000000e+000
    endloop
  endfacet
  facet normal  -0.000000e+000  0.000000e+000  1.000000e+000
    outer loop
      vertex -1.700000e+001 -1.250000e+000  3.000000e+000
      vertex -1.959808e+001 -3.500000e+000  3.000000e+000
      vertex -1.700000e+001 -5.000000e+000  3.000000e+000
    endloop
  endfacet
  facet normal  0.000000e+000  0.000000e+000  1.000000e+000
    outer loop
      vertex -1.700000e+001 -5.000000e+000  3.000000e+000
      vertex -1.959808e+001 -3.500000e+000  3.000000e+000
      vertex -1.850000e+001 -4.598076e+000  3.000000e+000
    endloop
  endfacet
  facet normal -1.000000e+000  -0.000000e+000  0.000000e+000
    outer loop
      vertex -2.000000e+001 -2.000000e+000  3.000000e+000
      vertex -2.000000e+001  2.000000e+000  3.000000e+000
      vertex -2.000000e+001 -2.000000e+000  0.000000e+000
    endloop
  endfacet
  facet normal -1.000000e+000  0.000000e+000  0.000000e+000
    outer loop
      vertex -2.000000e+001 -2.000000e+000  0.000000e+000
      vertex -2.000000e+001  2.000000e+000  3.000000e+000
      vertex -2.000000e+001  2.000000e+000  0.000000e+000
    endloop
  endfacet
  facet normal  0.000000e+000  1.000000e+000  -0.000000e+000
    outer loop
      vertex -1.300000e+001  5.000000e+000  3.000000e+000
      vertex -1.300000e+001  5.000000e+000  0.000000e+000
      vertex -1.700000e+001  5.000000e+000  3.000000e+000
    endloop
  endfacet
  facet normal  0.000000e+000  1.000000e+000  0.000000e+000
    outer loop
      vertex -1.700000e+001  5.000000e+000  3.000000e+000
      vertex -1.300000e+001  5.000000e+000  0.000000e+000
      vertex -1.700000e+001  5.000000e+000  0.000000e+000
    endloop
  endfacet
  facet normal -9.659257e-001  2.588192e-001  0.000000e+000
    outer loop
      vertex -2.000000e+001  2.000000e+000  0.000000e+000
      vertex -2.000000e+001  2.000000e+000  3.000000e+000
      vertex -1.959808e+001  3.500000e+000  0.000000e+000
    endloop
  endfacet
  facet normal -9.659257e-001  2.588192e-001  0.000000e+000
    outer loop
      vertex -1.959808e+001  3.500000e+000  0.000000e+000
      vertex -2.000000e+001  2.000000e+000  3.000000e+000
      vertex -1.959808e+001  3.500000e+000  3.000000e+000
    endloop
  endfacet
  facet normal -7.071069e-001  7.071066e-001  0.000000e+000
    outer loop
      vertex -1.959808e+001  3.500000e+000  0.000000e+000
      vertex -1.959808e+001  3.500000e+000  3.000000e+000
      vertex -1.850000e+001  4.598076e+000  0.000000e+000
    endloop
  endfacet
  facet normal -7.071069e-001  7.071066e-001  0.000000e+000
    outer loop
      vertex -1.850000e+001  4.598076e+000  0.000000e+000
      vertex -1.959808e+001  3.500000e+000  3.000000e+000
      vertex -1.850000e+001  4.598076e+000  3.000000e+000
    endloop
  endfacet
  facet normal -2.588190e-001  9.659258e-001  0.000000e+000
    outer loop
      vertex -1.850000e+001  4.598076e+000  0.000000e+000
      vertex -1.850000e+001  4.598076e+000  3.000000e+000
      vertex -1.700000e+001  5.000000e+000  0.000000e+000
    endloop
  endfacet
  facet normal -2.588190e-001  9.659258e-001  0.000000e+000
    outer loop
      vertex -1.700000e+001  5.000000e+000  0.000000e+000
      vertex -1.850000e+001  4.598076e+000  3.000000e+000
      vertex -1.700000e+001  5.000000e+000  3.000000e+000
    endloop
  endfacet
  facet normal  0.000000e+000 -1.000000e+000  0.000000e+000
    outer loop
      vertex -1.700000e+001 -5.000000e+000  3.000000e+000
      vertex -1.700000e+001 -5.000000e+000  0.000000e+000
      vertex -1.674067e+001 -5.000000e+000  3.000000e+000
    endloop
  endfacet
  facet normal  0.000000e+000 -1.000000e+000  -0.000000e+000
    outer loop
      vertex -1.674067e+001 -5.000000e+000  3.000000e+000
      vertex -1.700000e+001 -5.000000e+000  0.000000e+000
      vertex -1.674067e+001 -5.000000e+000  0.000000e+000
    endloop
  endfacet
  facet normal -2.588190e-001 -9.659258e-001  -0.000000e+000
    outer loop
      vertex -1.700000e+001 -5.000000e+000  0.000000e+000
      vertex -1.700000e+001 -5.000000e+000  3.000000e+000
      vertex -1.850000e+001 -4.598076e+000  0.000000e+000
    endloop
  endfacet
  facet normal -2.588190e-001 -9.659258e-001  0.000000e+000
    outer loop
      vertex -1.850000e+001 -4.598076e+000  0.000000e+000
      vertex -1.700000e+001 -5.000000e+000  3.000000e+000
      vertex -1.850000e+001 -4.598076e+000  3.000000e+000
    endloop
  endfacet
  facet normal -7.071069e-001 -7.071066e-001  -0.000000e+000
    outer loop
      vertex -1.850000e+001 -4.598076e+000  0.000000e+000
      vertex -1.850000e+001 -4.598076e+000  3.000000e+000
      vertex -1.959808e+001 -3.500000e+000  0.000000e+000
    endloop
  endfacet
  facet normal -7.071069e-001 -7.071066e-001  0.000000e+000
    outer loop
      vertex -1.959808e+001 -3.500000e+000  0.000000e+000
      vertex -1.850000e+001 -4.598076e+000  3.000000e+000
      vertex -1.959808e+001 -3.500000e+000  3.000000e+000
    endloop
  endfacet
  facet normal -9.659257e-001 -2.588192e-001  -0.000000e+000
    outer loop
      vertex -1.959808e+001 -3.500000e+000  0.000000e+000
      vertex -1.959808e+001 -3.500000e+000  3.000000e+000
      vertex -2.000000e+001 -2.000000e+000  0.000000e+000
    endloop
  endfacet
  facet normal -9.659257e-001 -2.588192e-001  0.000000e+000
    outer loop
      vertex -2.000000e+001 -2.000000e+000  0.000000e+000
      vertex -1.959808e+001 -3.500000e+000  3.000000e+000
      vertex -2.000000e+001 -2.000000e+000  3.000000e+000
    endloop
  endfacet
  facet normal  0.000000e+000 -1.000000e+000  0.000000e+000
    outer loop
      vertex  1.674067e+001 -5.000000e+000  3.000000e+000
      vertex  1.674067e+001 -5.000000e+000  0.000000e+000
      vertex  1.700000e+001 -5.000000e+000  3.000000e+000
    endloop
  endfacet
  facet normal  0.000000e+000 -1.000000e+000  -0.000000e+000
    outer loop
      vertex  1.700000e+001 -5.000000e+000  3.000000e+000
      vertex  1.674067e+001 -5.000000e+000  0.000000e+000
      vertex  1.700000e+001 -5.000000e+000  0.000000e+000
    endloop
  endfacet
  facet normal  9.659257e-001 -2.588192e-001  0.000000e+000
    outer loop
      vertex  2.000000e+001 -2.000000e+000  0.000000e+000
      vertex  2.000000e+001 -2.000000e+000  3.000000e+000
      vertex  1.959808e+001 -3.500000e+000  0.000000e+000
    endloop
  endfacet
  facet normal  9.659257e-001 -2.588192e-001  0.000000e+000
    outer loop
      vertex  1.959808e+001 -3.500000e+000  0.000000e+000
      vertex  2.000000e+001 -2.000000e+000  3.000000e+000
      vertex  1.959808e+001 -3.500000e+000  3.000000e+000
    endloop
  endfacet
  facet normal  7.071069e-001 -7.071066e-001  0.000000e+000
    outer loop
      vertex  1.959808e+001 -3.500000e+000  0.000000e+000
      vertex  1.959808e+001 -3.500000e+000  3.000000e+000
      vertex  1.850000e+001 -4.598076e+000  0.000000e+000
    endloop
  endfacet
  facet normal  7.071069e-001 -7.071066e-001  0.000000e+000
    outer loop
      vertex  1.850000e+001 -4.598076e+000  0.000000e+000
      vertex  1.959808e+001 -3.500000e+000  3.000000e+000
      vertex  1.850000e+001 -4.598076e+000  3.000000e+000
    endloop
  endfacet
  facet normal  2.588190e-001 -9.659258e-001  0.000000e+000
    outer loop
      vertex  1.850000e+001 -4.598076e+000  0.000000e+000
      vertex  1.850000e+001 -4.598076e+000  3.000000e+000
      vertex  1.700000e+001 -5.000000e+000  0.000000e+000
    endloop
  endfacet
  facet normal  2.588190e-001 -9.659258e-001  0.000000e+000
    outer loop
      vertex  1.700000e+001 -5.000000e+000  0.000000e+000
      vertex  1.850000e+001 -4.598076e+000  3.000000e+000
      vertex  1.700000e+001 -5.000000e+000  3.000000e+000
    endloop
  endfacet
  facet normal  6.991779e-001 -7.149478e-001  0.000000e+000
    outer loop
      vertex  1.244819e+001 -7.435897e+000  0.000000e+000
      vertex  1.427293e+001 -5.651408e+000  0.000000e+000
      vertex  1.244819e+001 -7.435897e+000  3.000000e+000
    endloop
  endfacet
  facet normal  6.991779e-001 -7.149478e-001  0.000000e+000
    outer loop
      vertex  1.244819e+001 -7.435897e+000  3.000000e+000
      vertex  1.427293e+001 -5.651408e+000  0.000000e+000
      vertex  1.427293e+001 -5.651408e+000  3.000000e+000
    endloop
  endfacet
  facet normal  2.552269e-001 -9.668812e-001  0.000000e+000
    outer loop
      vertex  1.427293e+001 -5.651408e+000  0.000000e+000
      vertex  1.674067e+001 -5.000000e+000  0.000000e+000
      vertex  1.427293e+001 -5.651408e+000  3.000000e+000
    endloop
  endfacet
  facet normal  2.552269e-001 -9.668812e-001  0.000000e+000
    outer loop
      vertex  1.427293e+001 -5.651408e+000  3.000000e+000
      vertex  1.674067e+001 -5.000000e+000  0.000000e+000
      vertex  1.674067e+001 -5.000000e+000  3.000000e+000
    endloop
  endfacet
  facet normal -2.552269e-001 -9.668812e-001  0.000000e+000
    outer loop
      vertex -1.674067e+001 -5.000000e+000  0.000000e+000
      vertex -1.427293e+001 -5.651408e+000  0.000000e+000
      vertex -1.674067e+001 -5.000000e+000  3.000000e+000
    endloop
  endfacet
  facet normal -2.552269e-001 -9.668812e-001  0.000000e+000
    outer loop
      vertex -1.674067e+001 -5.000000e+000  3.000000e+000
      vertex -1.427293e+001 -5.651408e+000  0.000000e+000
      vertex -1.427293e+001 -5.651408e+000  3.000000e+000
    endloop
  endfacet
  facet normal -6.991779e-001 -7.149478e-001  0.000000e+000
    outer loop
      vertex -1.427293e+001 -5.651408e+000  0.000000e+000
      vertex -1.244819e+001 -7.435897e+000  0.000000e+000
      vertex -1.427293e+001 -5.651408e+000  3.000000e+000
    endloop
  endfacet
  facet normal -6.991779e-001 -7.149478e-001  0.000000e+000
    outer loop
      vertex -1.427293e+001 -5.651408e+000  3.000000e+000
      vertex -1.244819e+001 -7.435897e+000  0.000000e+000
      vertex -1.244819e+001 -7.435897e+000  3.000000e+000
    endloop
  endfacet
  facet normal -3.826831e-001 -9.238797e-001  0.000000e+000
    outer loop
      vertex  1.700000e+001  1.250000e+000  3.000000e+000
      vertex  1.788388e+001  8.838835e-001  0.000000e+000
      vertex  1.788388e+001  8.838835e-001  3.000000e+000
    endloop
  endfacet
  facet normal -9.238799e-001 -3.826826e-001  -0.000000e+000
    outer loop
      vertex  1.788388e+001  8.838835e-001  3.000000e+000
      vertex  1.788388e+001  8.838835e-001  0.000000e+000
      vertex  1.825000e+001  0.000000e+000  0.000000e+000
    endloop
  endfacet
  facet normal -9.238799e-001 -3.826826e-001  1.073005e-017
    outer loop
      vertex  1.788388e+001  8.838835e-001  3.000000e+000
      vertex  1.825000e+001  0.000000e+000  0.000000e+000
      vertex  1.825000e+001  8.411709e-017  3.000000e+000
    endloop
  endfacet
  facet normal -3.826831e-001 -9.238797e-001  -0.000000e+000
    outer loop
      vertex  1.788388e+001  8.838835e-001  0.000000e+000
      vertex  1.700000e+001  1.250000e+000  3.000000e+000
      vertex  1.700000e+001  1.250000e+000  0.000000e+000
    endloop
  endfacet
  facet normal  3.826831e-001 -9.238797e-001  0.000000e+000
    outer loop
      vertex  1.700000e+001  1.250000e+000  0.000000e+000
      vertex  1.700000e+001  1.250000e+000  3.000000e+000
      vertex  1.611612e+001  8.838835e-001  3.000000e+000
    endloop
  endfacet
  facet normal  3.826831e-001 -9.238797e-001  0.000000e+000
    outer loop
      vertex  1.700000e+001  1.250000e+000  0.000000e+000
      vertex  1.611612e+001  8.838835e-001  3.000000e+000
      vertex  1.611612e+001  8.838835e-001  0.000000e+000
    endloop
  endfacet
  facet normal  9.238799e-001 -3.826826e-001  0.000000e+000
    outer loop
      vertex  1.611612e+001  8.838835e-001  0.000000e+000
      vertex  1.611612e+001  8.838835e-001  3.000000e+000
      vertex  1.575000e+001 -4.205855e-017  3.000000e+000
    endloop
  endfacet
  facet normal  9.238799e-001 -3.826826e-001  1.416210e-017
    outer loop
      vertex  1.611612e+001  8.838835e-001  0.000000e+000
      vertex  1.575000e+001 -4.205855e-017  3.000000e+000
      vertex  1.575000e+001 -1.530808e-016  0.000000e+000
    endloop
  endfacet
  facet normal  3.826831e-001  9.238797e-001  -0.000000e+000
    outer loop
      vertex  1.700000e+001 -1.250000e+000  3.000000e+000
      vertex  1.611612e+001 -8.838835e-001  0.000000e+000
      vertex  1.611612e+001 -8.838835e-001  3.000000e+000
    endloop
  endfacet
  facet normal  9.238799e-001  3.826826e-001  0.000000e+000
    outer loop
      vertex  1.611612e+001 -8.838835e-001  3.000000e+000
      vertex  1.611612e+001 -8.838835e-001  0.000000e+000
      vertex  1.575000e+001 -1.530808e-016  0.000000e+000
    endloop
  endfacet
  facet normal  9.238799e-001  3.826826e-001 -1.416210e-017
    outer loop
      vertex  1.611612e+001 -8.838835e-001  3.000000e+000
      vertex  1.575000e+001 -1.530808e-016  0.000000e+000
      vertex  1.575000e+001 -4.205855e-017  3.000000e+000
    endloop
  endfacet
  facet normal  3.826831e-001  9.238797e-001  0.000000e+000
    outer loop
      vertex  1.611612e+001 -8.838835e-001  0.000000e+000
      vertex  1.700000e+001 -1.250000e+000  3.000000e+000
      vertex  1.700000e+001 -1.250000e+000  0.000000e+000
    endloop
  endfacet
  facet normal -3.826831e-001  9.238797e-001  0.000000e+000
    outer loop
      vertex  1.700000e+001 -1.250000e+000  0.000000e+000
      vertex  1.700000e+001 -1.250000e+000  3.000000e+000
      vertex  1.788388e+001 -8.838835e-001  3.000000e+000
    endloop
  endfacet
  facet normal -3.826831e-001  9.238797e-001  0.000000e+000
    outer loop
      vertex  1.700000e+001 -1.250000e+000  0.000000e+000
      vertex  1.788388e+001 -8.838835e-001  3.000000e+000
      vertex  1.788388e+001 -8.838835e-001  0.000000e+000
    endloop
  endfacet
  facet normal -9.238799e-001  3.826826e-001  0.000000e+000
    outer loop
      vertex  1.788388e+001 -8.838835e-001  0.000000e+000
      vertex  1.788388e+001 -8.838835e-001  3.000000e+000
      vertex  1.825000e+001  8.411709e-017  3.000000e+000
    endloop
  endfacet
  facet normal -9.238799e-001  3.826826e-001 -1.073005e-017
    outer loop
      vertex  1.788388e+001 -8.838835e-001  0.000000e+000
      vertex  1.825000e+001  8.411709e-017  3.000000e+000
      vertex  1.825000e+001  0.000000e+000  0.000000e+000
    endloop
  endfacet
  facet normal -3.826831e-001 -9.238797e-001  0.000000e+000
    outer loop
      vertex -1.700000e+001  1.250000e+000  3.000000e+000
      vertex -1.611612e+001  8.838835e-001  0.000000e+000
      vertex -1.611612e+001  8.838835e-001  3.000000e+000
    endloop
  endfacet
  facet normal -9.238799e-001 -3.826826e-001  -0.000000e+000
    outer loop
      vertex -1.611612e+001  8.838835e-001  3.000000e+000
      vertex -1.611612e+001  8.838835e-001  0.000000e+000
      vertex -1.575000e+001  0.000000e+000  0.000000e+000
    endloop
  endfacet
  facet normal -9.238799e-001 -3.826826e-001  1.073005e-017
    outer loop
      vertex -1.611612e+001  8.838835e-001  3.000000e+000
      vertex -1.575000e+001  0.000000e+000  0.000000e+000
      vertex -1.575000e+001  8.411709e-017  3.000000e+000
    endloop
  endfacet
  facet normal -3.826831e-001 -9.238797e-001  -0.000000e+000
    outer loop
      vertex -1.611612e+001  8.838835e-001  0.000000e+000
      vertex -1.700000e+001  1.250000e+000  3.000000e+000
      vertex -1.700000e+001  1.250000e+000  0.000000e+000
    endloop
  endfacet
  facet normal  3.826831e-001 -9.238797e-001  0.000000e+000
    outer loop
      vertex -1.700000e+001  1.250000e+000  0.000000e+000
      vertex -1.700000e+001  1.250000e+000  3.000000e+000
      vertex -1.788388e+001  8.838835e-001  3.000000e+000
    endloop
  endfacet
  facet normal  3.826831e-001 -9.238797e-001  0.000000e+000
    outer loop
      vertex -1.700000e+001  1.250000e+000  0.000000e+000
      vertex -1.788388e+001  8.838835e-001  3.000000e+000
      vertex -1.788388e+001  8.838835e-001  0.000000e+000
    endloop
  endfacet
  facet normal  9.238799e-001 -3.826826e-001  0.000000e+000
    outer loop
      vertex -1.788388e+001  8.838835e-001  0.000000e+000
      vertex -1.788388e+001  8.838835e-001  3.000000e+000
      vertex -1.825000e+001 -4.205855e-017  3.000000e+000
    endloop
  endfacet
  facet normal  9.238799e-001 -3.826826e-001  1.416210e-017
    outer loop
      vertex -1.788388e+001  8.838835e-001  0.000000e+000
      vertex -1.825000e+001 -4.205855e-017  3.000000e+000
      vertex -1.825000e+001 -1.530808e-016  0.000000e+000
    endloop
  endfacet
  facet normal  3.826831e-001  9.238797e-001  -0.000000e+000
    outer loop
      vertex -1.700000e+001 -1.250000e+000  3.000000e+000
      vertex -1.788388e+001 -8.838835e-001  0.000000e+000
      vertex -1.788388e+001 -8.838835e-001  3.000000e+000
    endloop
  endfacet
  facet normal  9.238799e-001  3.826826e-001  0.000000e+000
    outer loop
      vertex -1.788388e+001 -8.838835e-001  3.000000e+000
      vertex -1.788388e+001 -8.838835e-001  0.000000e+000
      vertex -1.825000e+001 -1.530808e-016  0.000000e+000
    endloop
  endfacet
  facet normal  9.238799e-001  3.826826e-001 -1.416210e-017
    outer loop
      vertex -1.788388e+001 -8.838835e-001  3.000000e+000
      vertex -1.825000e+001 -1.530808e-016  0.000000e+000
      vertex -1.825000e+001 -4.205855e-017  3.000000e+000
    endloop
  endfacet
  facet normal  3.826831e-001  9.238797e-001  0.000000e+000
    outer loop
      vertex -1.788388e+001 -8.838835e-001  0.000000e+000
      vertex -1.700000e+001 -1.250000e+000  3.000000e+000
      vertex -1.700000e+001 -1.250000e+000  0.000000e+000
    endloop
  endfacet
  facet normal -3.826831e-001  9.238797e-001  0.000000e+000
    outer loop
      vertex -1.700000e+001 -1.250000e+000  0.000000e+000
      vertex -1.700000e+001 -1.250000e+000  3.000000e+000
      vertex -1.611612e+001 -8.838835e-001  3.000000e+000
    endloop
  endfacet
  facet normal -3.826831e-001  9.238797e-001  0.000000e+000
    outer loop
      vertex -1.700000e+001 -1.250000e+000  0.000000e+000
      vertex -1.611612e+001 -8.838835e-001  3.000000e+000
      vertex -1.611612e+001 -8.838835e-001  0.000000e+000
    endloop
  endfacet
  facet normal -9.238799e-001  3.826826e-001  0.000000e+000
    outer loop
      vertex -1.611612e+001 -8.838835e-001  0.000000e+000
      vertex -1.611612e+001 -8.838835e-001  3.000000e+000
      vertex -1.575000e+001  8.411709e-017  3.000000e+000
    endloop
  endfacet
  facet normal -9.238799e-001  3.826826e-001 -1.073005e-017
    outer loop
      vertex -1.611612e+001 -8.838835e-001  0.000000e+000
      vertex -1.575000e+001  8.411709e-017  3.000000e+000
      vertex -1.575000e+001  0.000000e+000  0.000000e+000
    endloop
  endfacet
  facet normal -1.000000e+000  0.000000e+000  0.000000e+000
    outer loop
      vertex  1.300000e+001  5.000000e+000  3.000000e+000
      vertex  1.300000e+001  5.000000e+000  0.000000e+000
      vertex  1.300000e+001  0.000000e+000  3.000000e+000
    endloop
  endfacet
  facet normal -1.000000e+000  0.000000e+000  0.000000e+000
    outer loop
      vertex  1.300000e+001  0.000000e+000  3.000000e+000
      vertex  1.300000e+001  5.000000e+000  0.000000e+000
      vertex  1.300000e+001  0.000000e+000  0.000000e+000
    endloop
  endfacet
  facet normal  1.000000e+000  0.000000e+000  -0.000000e+000
    outer loop
      vertex -1.300000e+001 -1.592041e-015  3.000000e+000
      vertex -1.300000e+001  0.000000e+000  0.000000e+000
      vertex -1.300000e+001  5.000000e+000  3.000000e+000
    endloop
  endfacet
  facet normal  1.000000e+000  0.000000e+000  0.000000e+000
    outer loop
      vertex -1.300000e+001  5.000000e+000  3.000000e+000
      vertex -1.300000e+001  0.000000e+000  0.000000e+000
      vertex -1.300000e+001  5.000000e+000  0.000000e+000
    endloop
  endfacet
endsolid CATIA STL
